<svg width="167" height="50" viewBox="0 0 167 50" fill="none" xmlns="http://www.w3.org/2000/svg">
<g clip-path="url(#clip0_3436_5608)">
<path fill-rule="evenodd" clip-rule="evenodd" d="M13.3883 0.625002H153.71C154.211 0.625002 154.721 0.62484 155.222 0.62733C155.569 0.629311 155.923 0.634535 156.273 0.639691C156.351 0.640852 156.43 0.642009 156.508 0.643125C157.443 0.652395 158.375 0.725949 159.297 0.863135C160.223 1.00368 161.12 1.26672 161.959 1.64355C163.637 2.4124 165.002 3.63115 165.863 5.12841C166.284 5.87445 166.575 6.67326 166.726 7.49744C166.882 8.32116 166.969 9.15409 166.985 9.98929C166.991 10.371 166.991 10.7538 166.991 11.1355C167.002 11.5865 167.002 12.0386 167.002 12.4944V38.544C167.002 39.0035 167.002 39.4532 166.991 39.9054C166.991 40.2919 166.991 40.6663 166.985 41.0529C166.969 41.888 166.882 42.7209 166.726 43.5446C166.575 44.3693 166.284 45.1685 165.863 45.9149C165.435 46.6576 164.879 47.3357 164.215 47.9241C163.556 48.5177 162.794 49.013 161.959 49.3913C161.12 49.7691 160.223 50.0337 159.297 50.1764C158.375 50.3125 157.443 50.386 156.508 50.3965C156.083 50.4049 155.647 50.4098 155.222 50.4098C154.721 50.4123 154.211 50.4123 153.71 50.4123H13.3883C12.8768 50.4123 12.3714 50.4123 11.8613 50.4098C11.4343 50.4098 11.0106 50.4049 10.5795 50.3965C9.64294 50.3854 8.70862 50.3119 7.78437 50.1764C6.86147 50.0347 5.96768 49.77 5.13293 49.3913C4.29719 49.0132 3.53489 48.5179 2.87517 47.9241C2.20934 47.338 1.65434 46.6594 1.23173 45.9149C0.807363 45.1691 0.513369 44.3697 0.359955 43.5446C0.204658 42.721 0.121089 41.888 0.109999 41.0529C0.101156 40.7888 0.097716 40.5303 0.0942491 40.2699C0.0926415 40.1491 0.091028 40.0278 0.0888672 39.9054V11.1355C0.0910536 11.0132 0.0926797 10.8907 0.0943063 10.7682C0.097754 10.5085 0.101204 10.2486 0.109999 9.98934C0.121086 9.15421 0.204655 8.3211 0.359955 7.49749C0.513793 6.67283 0.807771 5.87396 1.23173 5.12846C1.65453 4.38147 2.20945 3.70016 2.87517 3.11072C3.53741 2.51962 4.29921 2.02461 5.13293 1.64366C5.96768 1.26591 6.86157 1.0028 7.78437 0.863247C8.70846 0.726663 9.64288 0.653134 10.5795 0.643299C10.669 0.642035 10.7582 0.640722 10.8471 0.639413C11.1867 0.634414 11.5229 0.629464 11.8613 0.627492C12.3714 0.625002 12.8768 0.625002 13.3883 0.625002ZM10.4845 49.3136C10.9069 49.3221 11.3223 49.3269 11.748 49.3269L153.835 49.3294L155.349 49.3269C155.765 49.3269 156.194 49.3221 156.603 49.3136C157.478 49.3041 158.351 49.2362 159.215 49.1105C160.026 48.988 160.812 48.7572 161.546 48.4261C162.27 48.0981 162.93 47.6683 163.501 47.1531C164.073 46.6481 164.552 46.0659 164.92 45.428C165.29 44.7735 165.544 44.0723 165.674 43.3489C165.817 42.586 165.897 41.8148 165.913 41.0414C165.919 40.6597 165.919 40.2889 165.919 39.884C165.93 39.4391 165.93 38.9978 165.93 38.5455V12.4905C165.93 12.0425 165.93 11.5981 165.919 11.1313C165.919 10.7544 165.919 10.3757 165.915 10.0231C165.898 9.23572 165.817 8.45048 165.672 7.67363C165.54 6.95968 165.288 6.26758 164.924 5.62082C164.18 4.32744 163 3.274 161.55 2.60815C160.814 2.27883 160.027 2.04897 159.215 1.92611C158.356 1.80057 157.488 1.73291 156.618 1.72369L155.342 1.70788H11.7487L10.4879 1.72308C9.60991 1.73278 8.73394 1.80105 7.86736 1.92733C7.0636 2.04866 6.28487 2.27694 5.55726 2.6045C4.83342 2.9349 4.17225 3.36443 3.59783 3.87742C3.02277 4.38558 2.54378 4.9733 2.17942 5.61778C1.80949 6.26904 1.55342 6.96683 1.42007 7.687C1.27676 8.45753 1.19944 9.23665 1.18878 10.0176C1.18061 10.2705 1.16826 11.1313 1.16826 11.1313V39.8901C1.16826 39.8901 1.17985 40.7643 1.18871 41.0269C1.19984 41.8091 1.27761 42.5894 1.42136 43.3612C1.55446 44.0794 1.81034 44.7751 2.18006 45.4243C2.54576 46.0692 3.02743 46.6565 3.60598 47.1628C4.17627 47.6752 4.83534 48.1025 5.55794 48.4284C6.28723 48.7571 7.06744 48.9869 7.87283 49.1105C8.73656 49.2356 9.6095 49.3034 10.4845 49.3136Z" fill="#A6A6A6" fill-opacity="0.4"/>
<path d="M11.7467 49.328C11.321 49.328 10.9056 49.3232 10.4832 49.3147C9.60824 49.3045 8.7353 49.2367 7.87156 49.1116C7.06617 48.988 6.28596 48.7582 5.55668 48.4295C4.83407 48.1036 4.175 47.6763 3.60471 47.1639C3.02617 46.6576 2.5445 46.0703 2.1788 45.4254C1.80907 44.7762 1.5532 44.0805 1.42009 43.3623C1.27635 42.5905 1.19858 41.8102 1.18745 41.028C1.17859 40.7654 1.16699 39.8912 1.16699 39.8912V11.1324C1.16699 11.1324 1.17934 10.2716 1.18752 10.0187C1.19817 9.23775 1.27549 8.45863 1.41881 7.6881C1.55216 6.96793 1.80823 6.27014 2.17816 5.61889C2.54251 4.9744 3.0215 4.38668 3.59657 3.87852C4.17098 3.36553 4.83216 2.936 5.55599 2.6056C6.2836 2.27804 7.06234 2.04977 7.8661 1.92843C8.73267 1.80215 9.60865 1.73388 10.4867 1.72419L11.7474 1.70898H155.341L156.617 1.7248C157.487 1.73401 158.355 1.80167 159.214 1.92721C160.026 2.05007 160.812 2.27993 161.548 2.60925C162.999 3.2751 164.178 4.32855 164.923 5.62192C165.287 6.26868 165.539 6.96078 165.671 7.67473C165.816 8.45158 165.897 9.23682 165.913 10.0242C165.917 10.3768 165.917 10.7555 165.917 11.1324C165.929 11.5992 165.929 12.0436 165.929 12.4916V38.5466C165.929 38.9989 165.929 39.4402 165.917 39.8851C165.917 40.29 165.917 40.6609 165.912 41.0425C165.896 41.8159 165.816 42.5871 165.673 43.35C165.543 44.0734 165.288 44.7747 164.919 45.4291C164.55 46.067 164.072 46.6492 163.5 47.1542C162.929 47.6694 162.269 48.0992 161.544 48.4272C160.81 48.7583 160.025 48.9891 159.214 49.1116C158.35 49.2373 157.477 49.3052 156.602 49.3147C156.193 49.3232 155.764 49.328 155.348 49.328L153.833 49.3305L11.7467 49.328Z" fill="black"/>
<path d="M33.6 25.8857C33.6133 24.8468 33.8874 23.8282 34.3968 22.9246C34.9062 22.021 35.6344 21.2619 36.5136 20.7177C35.9551 19.9147 35.2182 19.2538 34.3616 18.7876C33.505 18.3214 32.5522 18.0627 31.579 18.0321C29.5028 17.8127 27.49 19.2828 26.432 19.2828C25.3535 19.2828 23.7246 18.0539 21.9705 18.0902C20.8359 18.1271 19.7301 18.4593 18.7609 19.0543C17.7917 19.6493 16.9922 20.4869 16.4402 21.4855C14.049 25.6532 15.8326 31.7784 18.1232 35.1473C19.2692 36.7969 20.6085 38.6396 22.361 38.5742C24.076 38.5026 24.7165 37.4733 26.7866 37.4733C28.8375 37.4733 29.4384 38.5742 31.2265 38.5327C33.0667 38.5026 34.2261 36.8757 35.3319 35.2105C36.1553 34.035 36.7889 32.7359 37.2093 31.3613C36.1402 30.9061 35.2278 30.1441 34.586 29.1704C33.9441 28.1967 33.6012 27.0543 33.6 25.8857Z" fill="white"/>
<path d="M30.223 15.8193C31.2264 14.6067 31.7207 13.0482 31.601 11.4746C30.0681 11.6367 28.6521 12.3742 27.6352 13.5403C27.138 14.1099 26.7571 14.7727 26.5145 15.4906C26.2719 16.2084 26.1722 16.9674 26.2211 17.7242C26.9878 17.7321 27.7464 17.5648 28.4395 17.2349C29.1327 16.9049 29.7425 16.4209 30.223 15.8193Z" fill="white"/>
<path d="M62.3167 34.4017H56.4643L55.0589 38.5794H52.5801L58.1233 23.123H60.6987L66.242 38.5794H63.7209L62.3167 34.4017ZM57.0704 32.4739H61.7094L59.4225 25.6938H59.3585L57.0704 32.4739Z" fill="white"/>
<path d="M78.2135 32.9455C78.2135 36.4474 76.3516 38.6973 73.542 38.6973C72.8302 38.7348 72.1224 38.5697 71.4995 38.2211C70.8766 37.8724 70.3639 37.3542 70.02 36.7257H69.9668V42.3074H67.6691V27.3104H69.8932V29.1847H69.9354C70.2952 28.5593 70.8166 28.0438 71.4442 27.693C72.0719 27.3422 72.7822 27.1692 73.4997 27.1925C76.3407 27.1925 78.2135 29.4534 78.2135 32.9455ZM75.8518 32.9455C75.8518 30.664 74.6806 29.1641 72.8936 29.1641C71.138 29.1641 69.9572 30.6956 69.9572 32.9455C69.9572 35.2161 71.138 36.7367 72.8936 36.7367C74.6806 36.7367 75.8518 35.2477 75.8518 32.9455Z" fill="white"/>
<path d="M90.5339 32.9455C90.5339 36.4474 88.6721 38.6973 85.8624 38.6973C85.1507 38.7348 84.4429 38.5697 83.82 38.2211C83.1971 37.8724 82.6843 37.3542 82.3404 36.7257H82.2872V42.3074H79.9895V27.3104H82.2136V29.1847H82.2558C82.6156 28.5593 83.137 28.0438 83.7646 27.693C84.3923 27.3422 85.1026 27.1692 85.8201 27.1925C88.6612 27.1925 90.5339 29.4534 90.5339 32.9455ZM88.1722 32.9455C88.1722 30.664 87.001 29.1641 85.214 29.1641C83.4585 29.1641 82.2776 30.6956 82.2776 32.9455C82.2776 35.2161 83.4585 36.7367 85.214 36.7367C87.001 36.7367 88.1722 35.2477 88.1722 32.9455Z" fill="white"/>
<path d="M98.6767 34.2729C98.847 35.8056 100.326 36.812 102.347 36.812C104.284 36.812 105.677 35.8056 105.677 34.4235C105.677 33.2238 104.837 32.5055 102.847 32.0132L100.857 31.5306C98.038 30.8451 96.7292 29.5177 96.7292 27.3638C96.7292 24.697 99.0377 22.8652 102.316 22.8652C105.56 22.8652 107.784 24.697 107.859 27.3638H105.54C105.401 25.8214 104.134 24.8903 102.283 24.8903C100.432 24.8903 99.1657 25.8323 99.1657 27.2034C99.1657 28.2961 99.9747 28.9391 101.954 29.4314L103.645 29.8495C106.795 30.5995 108.104 31.8734 108.104 34.1342C108.104 37.0259 105.816 38.837 102.177 38.837C98.7721 38.837 96.4731 37.0684 96.3246 34.2727L98.6767 34.2729Z" fill="white"/>
<path d="M113.063 24.6436V27.3104H115.192V29.1422H113.063V35.3547C113.063 36.3198 113.489 36.7695 114.425 36.7695C114.678 36.7651 114.93 36.7472 115.181 36.716V38.5368C114.76 38.616 114.333 38.6518 113.905 38.6438C111.638 38.6438 110.754 37.7868 110.754 35.6014V29.1422H109.127V27.3104H110.754V24.6436H113.063Z" fill="white"/>
<path d="M116.425 32.9455C116.425 29.3999 118.499 27.1719 121.734 27.1719C124.979 27.1719 127.044 29.3998 127.044 32.9455C127.044 36.5009 124.99 38.7192 121.734 38.7192C118.478 38.7192 116.425 36.5009 116.425 32.9455ZM124.703 32.9455C124.703 30.5133 123.595 29.0778 121.734 29.0778C119.872 29.0778 118.766 30.5242 118.766 32.9455C118.766 35.3875 119.872 36.8121 121.734 36.8121C123.595 36.8121 124.703 35.3875 124.703 32.9455Z" fill="white"/>
<path d="M128.938 27.3104H131.13V29.2285H131.183C131.331 28.6294 131.68 28.1 132.17 27.7292C132.66 27.3585 133.262 27.1689 133.875 27.1925C134.14 27.1916 134.404 27.2205 134.662 27.2788V29.4424C134.328 29.3396 133.98 29.2924 133.63 29.3026C133.296 29.289 132.964 29.3482 132.655 29.4763C132.346 29.6044 132.068 29.7982 131.841 30.0445C131.613 30.2908 131.441 30.5838 131.337 30.9032C131.232 31.2227 131.198 31.5611 131.236 31.8953V38.5794H128.938L128.938 27.3104Z" fill="white"/>
<path d="M145.256 35.2696C144.947 37.3153 142.968 38.7192 140.436 38.7192C137.18 38.7192 135.159 36.5227 135.159 32.999C135.159 29.4643 137.191 27.1718 140.34 27.1718C143.437 27.1718 145.384 29.3136 145.384 32.7304V33.5229H137.478V33.6627C137.442 34.0774 137.493 34.4952 137.629 34.8883C137.766 35.2814 137.983 35.6409 138.268 35.9428C138.553 36.2447 138.898 36.4821 139.281 36.6393C139.664 36.7965 140.076 36.8699 140.489 36.8546C141.032 36.9058 141.577 36.7792 142.043 36.4936C142.509 36.208 142.871 35.7787 143.075 35.2696L145.256 35.2696ZM137.489 31.9063H143.085C143.106 31.5333 143.05 31.1602 142.92 30.8102C142.791 30.4602 142.591 30.1408 142.333 29.8723C142.075 29.6037 141.765 29.3917 141.422 29.2495C141.079 29.1074 140.711 29.0381 140.34 29.0462C139.966 29.0439 139.595 29.1163 139.248 29.2591C138.902 29.4019 138.587 29.6124 138.322 29.8783C138.057 30.1442 137.847 30.4603 137.704 30.8084C137.561 31.1564 137.488 31.5296 137.489 31.9063Z" fill="white"/>
<path d="M56.7819 11.489C57.2637 11.4542 57.747 11.5274 58.1972 11.7035C58.6474 11.8795 59.0532 12.154 59.3853 12.507C59.7173 12.86 59.9674 13.2828 60.1175 13.7449C60.2676 14.207 60.314 14.6969 60.2533 15.1793C60.2533 17.5519 58.9794 18.9158 56.7819 18.9158H54.1172V11.489H56.7819ZM55.263 17.8655H56.654C56.9982 17.8862 57.3426 17.8294 57.6623 17.6992C57.982 17.569 58.2688 17.3686 58.5018 17.1128C58.7349 16.8569 58.9083 16.5519 59.0095 16.2201C59.1107 15.8882 59.1372 15.5378 59.0869 15.1944C59.1335 14.8523 59.1044 14.5041 59.0016 14.1747C58.8989 13.8452 58.725 13.5428 58.4925 13.289C58.2599 13.0351 57.9745 12.8362 57.6567 12.7065C57.3388 12.5767 56.9964 12.5194 56.654 12.5385H55.263V17.8655Z" fill="white"/>
<path d="M61.5476 16.1109C61.5126 15.7426 61.5545 15.371 61.6705 15.0199C61.7865 14.6688 61.9741 14.346 62.2213 14.0722C62.4685 13.7984 62.7699 13.5796 63.106 13.4299C63.4421 13.2802 63.8056 13.2029 64.1731 13.2029C64.5407 13.2029 64.9042 13.2802 65.2403 13.4299C65.5764 13.5796 65.8777 13.7984 66.1249 14.0722C66.3721 14.346 66.5597 14.6688 66.6758 15.0199C66.7918 15.371 66.8336 15.7426 66.7986 16.1109C66.8343 16.4796 66.793 16.8517 66.6772 17.2034C66.5615 17.5551 66.374 17.8784 66.1267 18.1528C65.8795 18.4271 65.5779 18.6464 65.2415 18.7964C64.905 18.9464 64.5411 19.0239 64.1731 19.0239C63.8051 19.0239 63.4412 18.9464 63.1048 18.7964C62.7683 18.6464 62.4668 18.4271 62.2195 18.1528C61.9722 17.8784 61.7847 17.5551 61.669 17.2034C61.5533 16.8517 61.5119 16.4796 61.5476 16.1109ZM65.6685 16.1109C65.6685 14.896 65.1264 14.1855 64.1749 14.1855C63.2199 14.1855 62.6826 14.896 62.6826 16.1109C62.6826 17.3356 63.2199 18.0405 64.1749 18.0405C65.1264 18.0405 65.6685 17.3307 65.6685 16.1109Z" fill="white"/>
<path d="M73.7787 18.9157H72.6389L71.4883 14.7878H71.4013L70.2555 18.9157H69.1265L67.5919 13.311H68.7064L69.7037 17.5877H69.7858L70.9304 13.311H71.9845L73.1291 17.5877H73.2161L74.2085 13.311H75.3073L73.7787 18.9157Z" fill="white"/>
<path d="M76.598 13.311H77.6557V14.2013H77.7378C77.8771 13.8815 78.112 13.6135 78.4098 13.4345C78.7076 13.2555 79.0535 13.1745 79.3992 13.2028C79.6701 13.1823 79.9421 13.2234 80.1951 13.3231C80.448 13.4228 80.6755 13.5785 80.8605 13.7787C81.0456 13.9789 81.1836 14.2185 81.2642 14.4796C81.3448 14.7408 81.366 15.0168 81.3262 15.2874V18.9156H80.2275V15.5651C80.2275 14.6645 79.8387 14.2165 79.0261 14.2165C78.8422 14.2079 78.6586 14.2394 78.4879 14.3089C78.3172 14.3784 78.1635 14.4842 78.0372 14.6191C77.9109 14.754 77.8151 14.9148 77.7564 15.0905C77.6976 15.2662 77.6773 15.4525 77.6968 15.6368V18.9157H76.598L76.598 13.311Z" fill="white"/>
<path d="M83.077 11.123H84.1757V18.9157H83.077V11.123Z" fill="white"/>
<path d="M85.7031 16.1109C85.6681 15.7426 85.71 15.3709 85.8261 15.0198C85.9421 14.6687 86.1298 14.3459 86.377 14.0721C86.6242 13.7983 86.9256 13.5795 87.2617 13.4298C87.5979 13.2801 87.9614 13.2028 88.3289 13.2028C88.6965 13.2028 89.06 13.2801 89.3961 13.4298C89.7323 13.5795 90.0336 13.7983 90.2809 14.0721C90.5281 14.3459 90.7158 14.6687 90.8318 15.0198C90.9479 15.3709 90.9897 15.7426 90.9548 16.1109C90.9904 16.4796 90.949 16.8518 90.8332 17.2034C90.7175 17.5551 90.5299 17.8785 90.2826 18.1528C90.0353 18.4271 89.7338 18.6464 89.3973 18.7964C89.0608 18.9464 88.6969 19.0239 88.3289 19.0239C87.961 19.0239 87.597 18.9464 87.2606 18.7964C86.9241 18.6464 86.6225 18.4271 86.3752 18.1528C86.1279 17.8785 85.9404 17.5551 85.8246 17.2034C85.7089 16.8518 85.6675 16.4796 85.7031 16.1109ZM89.824 16.1109C89.824 14.896 89.2819 14.1855 88.3304 14.1855C87.3754 14.1855 86.8381 14.896 86.8381 16.1109C86.8381 17.3356 87.3754 18.0405 88.3304 18.0405C89.2819 18.0405 89.824 17.3307 89.824 16.1109Z" fill="white"/>
<path d="M92.1115 17.3307C92.1115 16.3218 92.8577 15.7402 94.1822 15.6575L95.6903 15.57V15.0862C95.6903 14.4943 95.3015 14.16 94.5504 14.16C93.9371 14.16 93.5121 14.3867 93.3901 14.783H92.3264C92.4387 13.8203 93.3382 13.2028 94.6012 13.2028C95.9969 13.2028 96.7842 13.9023 96.7842 15.0862V18.9157H95.7265V18.1281H95.6395C95.4631 18.4106 95.2153 18.6409 94.9215 18.7955C94.6277 18.9501 94.2984 19.0235 93.9673 19.008C93.7336 19.0325 93.4973 19.0074 93.2738 18.9344C93.0503 18.8613 92.8445 18.7419 92.6697 18.5839C92.4949 18.4258 92.3548 18.2327 92.2587 18.0168C92.1625 17.801 92.1124 17.5672 92.1115 17.3307ZM95.6903 16.8518V16.3832L94.3307 16.4707C93.564 16.5224 93.2163 16.7849 93.2163 17.279C93.2163 17.7834 93.6509 18.077 94.2486 18.077C94.4238 18.0948 94.6007 18.077 94.7688 18.0246C94.937 17.9722 95.093 17.8863 95.2275 17.772C95.362 17.6577 95.4722 17.5173 95.5517 17.3592C95.6313 17.2011 95.6784 17.0286 95.6903 16.8518Z" fill="white"/>
<path d="M98.2282 16.1109C98.2282 14.3399 99.1326 13.218 100.539 13.218C100.887 13.2019 101.232 13.2858 101.535 13.4599C101.837 13.634 102.084 13.8912 102.246 14.2013H102.329V11.123H103.427V18.9157H102.374V18.0302H102.288C102.112 18.3382 101.857 18.5922 101.549 18.7645C101.241 18.9369 100.892 19.0211 100.539 19.008C99.1229 19.0081 98.2282 17.8862 98.2282 16.1109ZM99.3632 16.1109C99.3632 17.2997 99.9199 18.015 100.851 18.015C101.777 18.015 102.349 17.2894 102.349 16.1158C102.349 14.9477 101.771 14.2117 100.851 14.2117C99.9259 14.2117 99.3632 14.9319 99.3632 16.1109Z" fill="white"/>
<path d="M107.973 16.1109C107.938 15.7426 107.98 15.371 108.096 15.0199C108.212 14.6688 108.4 14.346 108.647 14.0722C108.894 13.7984 109.196 13.5796 109.532 13.4299C109.868 13.2802 110.231 13.2029 110.599 13.2029C110.966 13.2029 111.33 13.2802 111.666 13.4299C112.002 13.5796 112.303 13.7984 112.551 14.0722C112.798 14.346 112.985 14.6688 113.101 15.0199C113.217 15.371 113.259 15.7426 113.224 16.1109C113.26 16.4796 113.219 16.8517 113.103 17.2034C112.987 17.5551 112.8 17.8784 112.552 18.1528C112.305 18.4271 112.004 18.6464 111.667 18.7964C111.331 18.9464 110.967 19.0239 110.599 19.0239C110.231 19.0239 109.867 18.9464 109.53 18.7964C109.194 18.6464 108.892 18.4271 108.645 18.1528C108.398 17.8784 108.21 17.5551 108.095 17.2034C107.979 16.8517 107.938 16.4796 107.973 16.1109ZM112.094 16.1109C112.094 14.896 111.552 14.1855 110.601 14.1855C109.646 14.1855 109.108 14.896 109.108 16.1109C109.108 17.3356 109.646 18.0405 110.601 18.0405C111.552 18.0405 112.094 17.3307 112.094 16.1109Z" fill="white"/>
<path d="M114.699 13.311H115.756V14.2013H115.838C115.978 13.8815 116.213 13.6135 116.51 13.4345C116.808 13.2555 117.154 13.1745 117.5 13.2028C117.771 13.1823 118.043 13.2234 118.296 13.3231C118.549 13.4228 118.776 13.5785 118.961 13.7787C119.146 13.9789 119.284 14.2185 119.365 14.4796C119.445 14.7408 119.467 15.0168 119.427 15.2874V18.9156H118.328V15.5651C118.328 14.6645 117.939 14.2165 117.127 14.2165C116.943 14.2079 116.759 14.2394 116.588 14.3089C116.418 14.3784 116.264 14.4842 116.138 14.6191C116.011 14.754 115.916 14.9148 115.857 15.0905C115.798 15.2662 115.778 15.4525 115.797 15.6368V18.9157H114.699V13.311Z" fill="white"/>
<path d="M125.635 11.9156V13.3365H126.842V14.2682H125.635V17.1502C125.635 17.7373 125.876 17.9943 126.423 17.9943C126.563 17.9939 126.702 17.9854 126.842 17.9688V18.8902C126.644 18.9257 126.444 18.9446 126.244 18.9467C125.022 18.9467 124.535 18.514 124.535 17.4334V14.2681H123.652V13.3365H124.535V11.9156H125.635Z" fill="white"/>
<path d="M128.342 11.123H129.431V14.2117H129.518C129.664 13.8889 129.906 13.6193 130.21 13.4396C130.513 13.26 130.865 13.179 131.216 13.2077C131.485 13.1929 131.755 13.2382 132.005 13.3403C132.255 13.4424 132.48 13.5988 132.663 13.7984C132.846 13.998 132.983 14.2358 133.064 14.4948C133.146 14.7539 133.169 15.0278 133.133 15.2971V18.9157H132.033V15.57C132.033 14.6748 131.619 14.2214 130.843 14.2214C130.654 14.2058 130.464 14.2319 130.286 14.2979C130.109 14.364 129.947 14.4683 129.814 14.6037C129.68 14.739 129.578 14.9021 129.513 15.0815C129.449 15.2609 129.424 15.4523 129.441 15.6423V18.9157H128.342L128.342 11.123Z" fill="white"/>
<path d="M139.54 17.4024C139.391 17.9146 139.067 18.3577 138.626 18.6541C138.185 18.9505 137.655 19.0814 137.127 19.0239C136.761 19.0336 136.396 18.9629 136.059 18.8166C135.722 18.6703 135.421 18.452 135.176 18.1767C134.932 17.9015 134.749 17.5759 134.642 17.2227C134.535 16.8694 134.506 16.4969 134.556 16.131C134.507 15.7639 134.537 15.3906 134.644 15.0363C134.751 14.6819 134.932 14.3549 135.175 14.0772C135.419 13.7996 135.719 13.5778 136.055 13.4269C136.391 13.2761 136.755 13.1996 137.123 13.2028C138.672 13.2028 139.606 14.2682 139.606 16.0282V16.4142H135.675V16.4762C135.658 16.6819 135.683 16.8889 135.75 17.084C135.817 17.2791 135.924 17.458 136.064 17.6091C136.203 17.7603 136.373 17.8804 136.561 17.9618C136.749 18.0432 136.953 18.0841 137.158 18.0818C137.42 18.1136 137.687 18.0659 137.923 17.9449C138.158 17.8239 138.353 17.6351 138.482 17.4023L139.54 17.4024ZM135.675 15.5961H138.487C138.501 15.408 138.475 15.2191 138.412 15.0414C138.349 14.8638 138.25 14.7014 138.121 14.5647C137.992 14.4279 137.836 14.3199 137.663 14.2475C137.49 14.1751 137.304 14.1399 137.117 14.1442C136.927 14.1418 136.738 14.1777 136.562 14.2499C136.386 14.322 136.226 14.4288 136.092 14.5642C135.957 14.6995 135.851 14.8605 135.78 15.0377C135.708 15.215 135.672 15.4048 135.675 15.5961Z" fill="white"/>
</g>
<defs>
<clipPath id="clip0_3436_5608">
<rect width="166.913" height="49.7873" fill="white" transform="translate(0.0869141 0.623047)"/>
</clipPath>
</defs>
</svg>
