<svg width="168" height="168" viewBox="0 0 170 170" fill="none" xmlns="http://www.w3.org/2000/svg">
<path d="M76.4099 4.85394C80.6453 -0.990788 89.3547 -0.990788 93.5901 4.85394C96.8446 9.34489 103.009 10.5711 107.734 7.6674C113.884 3.88841 121.93 7.22133 123.607 14.242C124.895 19.6365 130.121 23.1284 135.598 22.254C142.725 21.1161 148.884 27.2745 147.746 34.4023C146.872 39.8791 150.363 45.1051 155.758 46.3932C162.779 48.0696 166.112 56.1159 162.333 62.2657C159.429 66.991 160.655 73.1554 165.146 76.4099C170.991 80.6453 170.991 89.3547 165.146 93.5901C160.655 96.8446 159.429 103.009 162.333 107.734C166.112 113.884 162.779 121.93 155.758 123.607C150.363 124.895 146.872 130.121 147.746 135.598C148.884 142.725 142.725 148.884 135.598 147.746C130.121 146.872 124.895 150.363 123.607 155.758C121.93 162.779 113.884 166.112 107.734 162.333C103.009 159.429 96.8446 160.655 93.5901 165.146C89.3547 170.991 80.6453 170.991 76.4099 165.146C73.1554 160.655 66.991 159.429 62.2657 162.333C56.1159 166.112 48.0696 162.779 46.3932 155.758C45.1051 150.363 39.8791 146.872 34.4023 147.746C27.2745 148.884 21.1161 142.725 22.254 135.598C23.1284 130.121 19.6365 124.895 14.242 123.607C7.22133 121.93 3.88841 113.884 7.6674 107.734C10.5711 103.009 9.34489 96.8446 4.85394 93.5901C-0.990788 89.3547 -0.990788 80.6453 4.85394 76.4099C9.34489 73.1554 10.5711 66.991 7.6674 62.2657C3.88841 56.1159 7.22133 48.0696 14.242 46.3932C19.6365 45.1051 23.1284 39.8791 22.254 34.4023C21.1161 27.2745 27.2745 21.1161 34.4023 22.254C39.8791 23.1284 45.1051 19.6365 46.3932 14.242C48.0696 7.22133 56.1159 3.88841 62.2657 7.6674C66.991 10.5711 73.1554 9.34489 76.4099 4.85394Z" fill="#0E986A"/>
<rect x="21.5" y="21.5" width="127" height="127" rx="63.5" stroke="white" stroke-dasharray="6 4"/>
<path d="M54.8725 95.1875C53.9428 95.1875 53.0952 95.0078 52.3295 94.6484C51.5639 94.2891 50.9545 93.7578 50.5014 93.0547C50.0561 92.3438 49.8334 91.4727 49.8334 90.4414V85.2734H53.9116V90.1953C53.9116 90.5547 53.9819 90.8438 54.1225 91.0625C54.2709 91.2812 54.5053 91.3906 54.8256 91.3906C55.4428 91.3906 55.7514 91.0117 55.7514 90.2539V74.375H59.9116V89.8438C59.9116 90.9375 59.6967 91.8867 59.267 92.6914C58.8373 93.4883 58.2436 94.1055 57.4858 94.543C56.728 94.9727 55.8569 95.1875 54.8725 95.1875ZM66.9072 95.1875C65.2588 95.1875 63.997 94.6914 63.122 93.6992C62.2548 92.6992 61.8213 91.2578 61.8213 89.375V79.5781C61.8213 77.8125 62.2509 76.4727 63.1103 75.5586C63.9775 74.6445 65.2431 74.1875 66.9072 74.1875C68.5713 74.1875 69.833 74.6445 70.6923 75.5586C71.5595 76.4727 71.9931 77.8125 71.9931 79.5781V89.375C71.9931 91.2578 71.5556 92.6992 70.6806 93.6992C69.8134 94.6914 68.5556 95.1875 66.9072 95.1875ZM66.9423 91.3906C67.5673 91.3906 67.8798 90.7852 67.8798 89.5742V79.5078C67.8798 78.4922 67.5752 77.9844 66.9658 77.9844C66.2783 77.9844 65.9345 78.5039 65.9345 79.543V89.5977C65.9345 90.2383 66.0127 90.6992 66.1689 90.9805C66.3252 91.2539 66.583 91.3906 66.9423 91.3906ZM73.9497 95V74.375H77.9341V95H73.9497ZM80.0547 95V74.375H84.2969L86.1953 84.2539V74.375H90.1797V95H86.1484L84.0859 84.6875V95H80.0547ZM103.362 95.1875C101.644 95.1875 100.378 94.707 99.5655 93.7461C98.753 92.7773 98.3467 91.3555 98.3467 89.4805V74.375H102.355V89.3164C102.355 89.6602 102.374 89.9922 102.413 90.3125C102.452 90.625 102.542 90.8828 102.683 91.0859C102.823 91.2891 103.05 91.3906 103.362 91.3906C103.683 91.3906 103.913 91.293 104.054 91.0977C104.194 90.8945 104.28 90.6328 104.312 90.3125C104.351 89.9922 104.37 89.6602 104.37 89.3164V74.375H108.378V89.4805C108.378 91.3555 107.972 92.7773 107.159 93.7461C106.347 94.707 105.081 95.1875 103.362 95.1875ZM115.338 95.1875C113.456 95.1875 112.096 94.7188 111.26 93.7812C110.432 92.8438 110.018 91.3516 110.018 89.3047V87.2891H114.096V89.8672C114.096 90.3438 114.167 90.7188 114.307 90.9922C114.456 91.2578 114.71 91.3906 115.069 91.3906C115.444 91.3906 115.702 91.2812 115.842 91.0625C115.991 90.8438 116.065 90.4844 116.065 89.9844C116.065 89.3516 116.003 88.8242 115.878 88.4023C115.753 87.9727 115.534 87.5664 115.221 87.1836C114.917 86.793 114.491 86.3398 113.944 85.8242L112.092 84.0664C110.71 82.7617 110.018 81.2695 110.018 79.5898C110.018 77.832 110.424 76.4922 111.237 75.5703C112.057 74.6484 113.241 74.1875 114.788 74.1875C116.678 74.1875 118.018 74.6914 118.807 75.6992C119.604 76.707 120.003 78.2383 120.003 80.293H115.807V78.875C115.807 78.5938 115.725 78.375 115.561 78.2188C115.405 78.0625 115.19 77.9844 114.917 77.9844C114.588 77.9844 114.346 78.0781 114.19 78.2656C114.042 78.4453 113.967 78.6797 113.967 78.9688C113.967 79.2578 114.045 79.5703 114.202 79.9062C114.358 80.2422 114.667 80.6289 115.128 81.0664L117.506 83.3516C117.983 83.8047 118.42 84.2852 118.819 84.793C119.217 85.293 119.538 85.8789 119.78 86.5508C120.022 87.2148 120.143 88.0273 120.143 88.9883C120.143 90.9258 119.784 92.4453 119.065 93.5469C118.354 94.6406 117.112 95.1875 115.338 95.1875Z" fill="white"/>
</svg>
