<svg width="37" height="37" viewBox="0 0 37 37" fill="none" xmlns="http://www.w3.org/2000/svg">
<g clip-path="url(#clip0_3436_5591)">
<path d="M35.0758 29.8275C35.0758 32.4124 32.9813 34.507 30.3963 34.507H6.06282C3.47879 34.507 1.3833 32.4124 1.3833 29.8275V5.49397C1.3833 2.909 3.47879 0.814453 6.06282 0.814453H30.3963C32.9813 0.814453 35.0758 2.909 35.0758 5.49397V29.8275Z" fill="#FFD446"/>
<path d="M29.0688 17.875H23.4438V13.375C23.4438 12.133 24.4518 12.25 25.6938 12.25H27.9438V6.625H23.4438C19.7156 6.625 16.6938 9.64675 16.6938 13.375V17.875H12.1938V23.5H16.6938V35.875H23.4438V23.5H26.8188L29.0688 17.875Z" fill="#151304"/>
</g>
<defs>
<clipPath id="clip0_3436_5591">
<rect width="36" height="36" fill="white" transform="translate(0.5 0.623047)"/>
</clipPath>
</defs>
</svg>
