<svg width="37" height="35" viewBox="0 0 37 35" fill="none" xmlns="http://www.w3.org/2000/svg">
<g clip-path="url(#clip0_3436_5585)">
<path d="M35.2291 29.5755C35.2291 32.1605 33.1346 34.255 30.5496 34.255H6.21614C3.63211 34.255 1.53662 32.1605 1.53662 29.5755V5.24202C1.53662 2.65705 3.63211 0.5625 6.21614 0.5625H30.5496C33.1346 0.5625 35.2291 2.65705 35.2291 5.24202V29.5755Z" fill="#FFD446"/>
<path d="M29.8119 10.1177C28.9348 10.5007 28.0071 10.7552 27.0574 10.8732C28.0586 10.2795 28.807 9.33896 29.1606 8.23003C28.2235 8.78622 27.1982 9.17792 26.129 9.38818C25.4738 8.68749 24.6229 8.20016 23.687 7.9896C22.7511 7.77904 21.7735 7.85499 20.8813 8.20756C19.9892 8.56013 19.2238 9.17301 18.6846 9.96648C18.1455 10.76 17.8576 11.6973 17.8585 12.6566C17.8551 13.0228 17.8924 13.3882 17.9698 13.7461C16.0679 13.6527 14.2071 13.1591 12.5089 12.2975C10.8107 11.436 9.31343 10.2259 8.11477 8.74634C7.49865 9.79889 7.30777 11.047 7.58115 12.2356C7.85452 13.4242 8.57151 14.4635 9.58557 15.1411C8.82867 15.1207 8.08781 14.9184 7.42556 14.5513V14.6034C7.4277 15.7067 7.80957 16.7756 8.50701 17.6305C9.20445 18.4854 10.1749 19.0741 11.2553 19.2977C10.8464 19.4051 10.4251 19.4576 10.0024 19.454C9.69803 19.4596 9.39393 19.4326 9.0953 19.3734C9.40482 20.3223 10.0007 21.1519 10.801 21.7482C11.6014 22.3446 12.5668 22.6783 13.5645 22.7034C11.8738 24.025 9.78942 24.7428 7.64346 24.7427C7.2611 24.7459 6.87894 24.7238 6.49951 24.6763C8.68763 26.0871 11.2382 26.8325 13.8416 26.8221C22.6403 26.8221 27.4506 19.5345 27.4506 13.2179C27.4506 13.0071 27.4506 12.8034 27.434 12.5998C28.3708 11.9237 29.1766 11.0826 29.8119 10.1177Z" fill="#151304"/>
</g>
<defs>
<clipPath id="clip0_3436_5585">
<rect width="36" height="34.5" fill="white" transform="translate(0.5 0.373047)"/>
</clipPath>
</defs>
</svg>
