<svg width="35" height="35" viewBox="0 0 35 35" fill="none" xmlns="http://www.w3.org/2000/svg">
<g clip-path="url(#clip0_3436_5580)">
<g clip-path="url(#clip1_3436_5580)">
<path d="M24.4507 7.87305H10.8573C9.45199 7.87305 8.30859 9.01644 8.30859 10.4218V24.0151C8.30859 25.4205 9.45199 26.5639 10.8573 26.5639H24.4507C25.856 26.5639 26.9994 25.4205 26.9994 24.0151V10.4218C26.9994 9.01644 25.856 7.87305 24.4507 7.87305ZM17.654 23.1655C14.3751 23.1655 11.7069 20.4973 11.7069 17.2185C11.7069 13.9396 14.3751 11.2714 17.654 11.2714C20.9329 11.2714 23.6011 13.9396 23.6011 17.2185C23.6011 20.4973 20.9329 23.1655 17.654 23.1655ZM23.6011 12.9705C22.6643 12.9705 21.9019 12.2081 21.9019 11.2714C21.9019 10.3346 22.6643 9.57221 23.6011 9.57221C24.5378 9.57221 25.3002 10.3346 25.3002 11.2714C25.3002 12.2081 24.5378 12.9705 23.6011 12.9705Z" fill="#FFD446"/>
<path d="M17.6528 13.873C15.809 13.873 14.3086 15.3734 14.3086 17.2173C14.3086 19.0611 15.809 20.5615 17.6528 20.5615C19.4967 20.5615 20.9971 19.0611 20.9971 17.2173C20.9971 15.3734 19.4967 13.873 17.6528 13.873Z" fill="#FFD446"/>
<path d="M29.4977 0.373047H5.80945C3.08849 0.373047 0.808594 2.65294 0.808594 5.37391V29.0622C0.808594 31.7832 3.08849 34.063 5.80945 34.063H29.4977C32.2187 34.063 34.4986 31.7832 34.4986 29.0622V5.37391C34.4986 2.65294 32.2187 0.373047 29.4977 0.373047ZM30.4847 25.1141C30.4847 27.8351 28.2707 30.0492 25.5497 30.0492H9.7575C7.03653 30.0492 4.82244 27.8351 4.82244 25.1141V9.32195C4.82244 6.60099 7.03653 4.38689 9.7575 4.38689H25.5497C28.2707 4.38689 30.4847 6.60099 30.4847 9.32195V25.1141Z" fill="#FFD446"/>
</g>
</g>
<defs>
<clipPath id="clip0_3436_5580">
<rect width="34.5" height="34.5" fill="white" transform="translate(0 0.373047)"/>
</clipPath>
<clipPath id="clip1_3436_5580">
<rect width="33.69" height="33.69" fill="white" transform="translate(0.808594 0.373047)"/>
</clipPath>
</defs>
</svg>
