<svg width="37" height="35" viewBox="0 0 37 35" fill="none" xmlns="http://www.w3.org/2000/svg">
<g clip-path="url(#clip0_3436_5588)">
<path d="M35.1525 29.5755C35.1525 32.1605 33.0579 34.255 30.473 34.255H6.13948C3.55545 34.255 1.45996 32.1605 1.45996 29.5755V5.24202C1.45996 2.65705 3.55545 0.5625 6.13948 0.5625H30.473C33.0579 0.5625 35.1525 2.65705 35.1525 5.24202V29.5755Z" fill="#FFD446"/>
<path d="M7.0791 12.7252H11.7586V28.6355H7.0791V12.7252ZM9.40482 10.8533H9.37862C7.98225 10.8533 7.0791 9.81262 7.0791 8.51265C7.0791 7.1846 8.01033 6.17383 9.43196 6.17383C10.8555 6.17383 11.7324 7.1846 11.7586 8.51265C11.7586 9.81168 10.8555 10.8533 9.40482 10.8533ZM29.5408 28.6355H24.8613V20.1197C24.8613 18.0626 23.7148 16.6588 21.8739 16.6588C20.4691 16.6588 19.7091 17.6059 19.3404 18.5212C19.2056 18.8488 19.2458 19.7547 19.2458 20.2124V28.6355H14.5663V12.7252H19.2458V15.1735C19.9206 14.129 20.9773 12.7252 23.6802 12.7252C27.0288 12.7252 29.5398 14.8309 29.5398 19.5329L29.5408 28.6355Z" fill="#151304"/>
</g>
<defs>
<clipPath id="clip0_3436_5588">
<rect width="36" height="34.5" fill="white" transform="translate(0.5 0.373047)"/>
</clipPath>
</defs>
</svg>
