<svg width="225" height="49" viewBox="0 0 225 49" fill="none" xmlns="http://www.w3.org/2000/svg">
<g clip-path="url(#clip0_3419_5061)">
<path fill-rule="evenodd" clip-rule="evenodd" d="M48.4781 13.6787C50.0037 17.2258 50.5304 20.8602 50.5994 24.308C50.4596 29.7672 48.5264 34.7891 45.3559 38.8266C43.5207 40.5587 41.2919 40.9749 38.8123 38.6618L38.5991 38.4565C38.0536 37.9162 37.4963 37.2433 36.9286 36.4231C34.1275 32.3752 31.5773 30.441 29.4578 29.6257L40.8746 17.7143C41.4815 17.0811 41.0286 16.036 40.1474 16.036H34.8673C34.591 16.036 34.3261 16.1492 34.1366 16.3489L23.3461 27.7167C23.3461 27.7167 23.3242 27.1281 23.286 26.1461C23.3307 22.5683 23.3137 14.5914 22.4556 8.29005C22.3873 7.29414 22.3246 6.61584 22.273 6.41062C22.1983 6.11444 22.1747 5.81833 22.1832 5.53773C22.1927 5.35952 22.2097 5.18592 22.2344 5.0168C22.3467 4.32847 22.5985 3.82891 22.5985 3.82891H22.5518C24.3393 -0.586045 32.13 -0.897442 38.349 2.37824C42.8051 5.01581 46.3659 8.96374 48.4781 13.6787ZM2.93822 12.0404C5.45225 7.59657 8.95624 6.20157 11.6336 7.32395C15.2377 9.24688 16.7361 14.4143 16.7361 20.3434C16.7361 20.585 16.7395 20.7804 16.7425 20.9619C16.7482 21.2892 16.753 21.5719 16.7361 22.001V37.4927C16.7361 38.316 17.4097 38.9836 18.2407 38.9836H21.8416C22.6726 38.9836 23.3461 38.316 23.3461 37.4927V31.3889C23.9957 32.1818 24.8819 32.9964 26.0766 33.649C40.4216 42.3 21.4844 51.9143 10.1214 43.5466C5.97558 40.4938 2.5861 35.5011 1.06187 30.8156C0.371115 28.5528 0 26.1544 0 23.6711C0 19.4689 1.06255 15.5104 2.93822 12.0404Z" fill="#151304"/>
<path d="M75.4641 35.2422C75.1015 35.2422 74.7607 35.072 74.5477 34.7844L67.3757 25.1055V34.1314C67.3757 34.7449 66.8685 35.2422 66.2428 35.2422H60.9532C60.3277 35.2422 59.8203 34.7449 59.8203 34.1314V4.29632C59.8203 3.68286 60.3277 3.18555 60.9532 3.18555H66.2428C66.8685 3.18555 67.3757 3.68286 67.3757 4.29632V20.9033L74.503 11.5172C74.7168 11.2356 75.0537 11.0698 75.4117 11.0698H81.7554C82.7144 11.0698 83.2397 12.1652 82.6277 12.8892L73.9149 23.1993L82.686 33.4162C83.3063 34.1387 82.7825 35.2422 81.8194 35.2422H75.4641ZM96.1464 35.5888C93.7309 35.5888 91.5512 35.0834 89.6072 34.0726C87.6926 33.0617 86.1756 31.6178 85.0563 29.7407C83.9665 27.8633 83.4215 25.6685 83.4215 23.1559C83.4215 20.6724 83.9813 18.4919 85.1005 16.6147C86.2198 14.7086 87.7515 13.2502 89.6955 12.2394C91.6395 11.2286 93.8193 10.7232 96.2347 10.7232C98.65 10.7232 100.83 11.2286 102.774 12.2394C104.718 13.2502 106.25 14.7086 107.369 16.6147C108.488 18.4919 109.048 20.6724 109.048 23.1559C109.048 25.6397 108.473 27.8345 107.325 29.7407C106.205 31.6178 104.659 33.0617 102.685 34.0726C100.741 35.0834 98.5616 35.5888 96.1464 35.5888ZM96.1464 29.1775C97.5897 29.1775 98.8121 28.6576 99.8135 27.618C100.844 26.5782 101.36 25.0909 101.36 23.1559C101.36 21.221 100.859 19.7337 99.8578 18.6941C98.8857 17.6544 97.678 17.1345 96.2347 17.1345C94.7619 17.1345 93.5395 17.6544 92.5674 18.6941C91.5955 19.7049 91.1093 21.1922 91.1093 23.1559C91.1093 25.0909 91.5807 26.5782 92.5233 27.618C93.4953 28.6576 94.7031 29.1775 96.1464 29.1775ZM120.877 35.5888C118.726 35.5888 116.812 35.2278 115.133 34.5058C113.454 33.7839 112.128 32.8018 111.156 31.56C110.436 30.6184 109.95 29.5974 109.699 28.4971C109.555 27.8669 110.083 27.3147 110.741 27.3147H115.967C116.547 27.3147 117.008 27.7625 117.259 28.2758C117.46 28.6884 117.768 29.0468 118.181 29.3508C118.888 29.8706 119.757 30.1305 120.788 30.1305C121.731 30.1305 122.453 29.9572 122.953 29.6107C123.484 29.2352 123.749 28.7586 123.749 28.181C123.749 27.488 123.38 26.9826 122.644 26.6649C121.908 26.3183 120.715 25.943 119.065 25.5385C117.298 25.1343 115.825 24.7154 114.647 24.2824C113.468 23.8203 112.452 23.1127 111.598 22.1597C110.744 21.1776 110.317 19.8637 110.317 18.2175C110.317 16.8313 110.7 15.575 111.466 14.4487C112.261 13.2935 113.41 12.3838 114.912 11.7196C116.444 11.0553 118.255 10.7232 120.346 10.7232C123.439 10.7232 125.869 11.4741 127.637 12.9758C129.13 14.2238 130.094 15.8109 130.53 17.737C130.675 18.3807 130.144 18.954 129.472 18.954H124.736C124.17 18.954 123.716 18.5298 123.478 18.0269C123.28 17.6098 122.987 17.2546 122.6 16.9612C121.981 16.4703 121.156 16.2248 120.125 16.2248C119.242 16.2248 118.564 16.3981 118.093 16.7447C117.622 17.0623 117.386 17.51 117.386 18.0875C117.386 18.7807 117.754 19.3005 118.491 19.6471C119.257 19.9936 120.435 20.3401 122.025 20.6868C123.852 21.1488 125.339 21.6109 126.488 22.0729C127.637 22.5062 128.638 23.2281 129.492 24.239C130.376 25.2208 130.833 26.5494 130.862 28.2244C130.862 29.6395 130.45 30.9103 129.625 32.0365C128.83 33.1339 127.666 34.0004 126.134 34.6358C124.632 35.2712 122.88 35.5888 120.877 35.5888ZM148.43 10.8098C151.258 10.8098 153.526 11.734 155.234 13.5823C156.943 15.4017 157.797 17.9143 157.797 21.12V34.1314C157.797 34.7449 157.29 35.2422 156.664 35.2422H151.419C150.793 35.2422 150.286 34.7449 150.286 34.1314V22.1163C150.286 20.4991 149.859 19.2427 149.004 18.3474C148.15 17.4522 147.001 17.0046 145.558 17.0046C144.115 17.0046 142.966 17.4522 142.112 18.3474C141.258 19.2427 140.83 20.4991 140.83 22.1163V34.1314C140.83 34.7449 140.323 35.2422 139.698 35.2422H134.408C133.783 35.2422 133.275 34.7449 133.275 34.1314V4.29632C133.275 3.68286 133.783 3.18555 134.408 3.18555H139.698C140.323 3.18555 140.83 3.68286 140.83 4.29632V14.3187C141.596 13.2502 142.642 12.3982 143.968 11.7629C145.293 11.1275 146.781 10.8098 148.43 10.8098ZM167.26 11.0698C167.886 11.0698 168.393 11.567 168.393 12.1805V34.1314C168.393 34.7449 167.886 35.2422 167.26 35.2422H161.97C161.345 35.2422 160.838 34.7449 160.838 34.1314V12.1805C160.838 11.567 161.345 11.0698 161.97 11.0698H167.26ZM170.157 23.1993C170.157 20.8023 170.658 18.6651 171.659 16.788C172.69 14.9108 174.06 13.4523 175.768 12.4127C177.506 11.3441 179.391 10.8098 181.424 10.8098C182.985 10.8098 184.384 11.0842 185.621 11.6329C186.859 12.1527 187.86 12.8892 188.625 13.8422V12.1805C188.625 11.567 189.133 11.0698 189.758 11.0698H195.047C195.674 11.0698 196.181 11.567 196.181 12.1805V45.6546C196.181 46.268 195.674 46.7654 195.047 46.7654H189.758C189.133 46.7654 188.625 46.268 188.625 45.6546V32.2098C187.772 33.2207 186.726 34.0292 185.488 34.6358C184.281 35.2422 182.896 35.5455 181.335 35.5455C179.332 35.5455 177.477 35.0256 175.768 33.986C174.06 32.9464 172.69 31.4879 171.659 29.6107C170.658 27.7334 170.157 25.5963 170.157 23.1993ZM188.625 23.1559C188.625 21.8564 188.36 20.7734 187.831 19.9071C187.329 19.0118 186.667 18.3474 185.842 17.9143C185.018 17.4522 184.148 17.2212 183.235 17.2212C182.351 17.2212 181.497 17.4522 180.673 17.9143C179.848 18.3474 179.17 19.0118 178.64 19.9071C178.11 20.8023 177.845 21.8998 177.845 23.1993C177.845 24.4989 178.11 25.5963 178.64 26.4916C179.17 27.3581 179.848 28.0223 180.673 28.4843C181.497 28.9176 182.351 29.1341 183.235 29.1341C184.119 29.1341 184.974 28.9176 185.798 28.4843C186.652 28.0223 187.329 27.3435 187.831 26.4482C188.36 25.5531 188.625 24.4555 188.625 23.1559ZM197.935 23.1127C197.935 20.629 198.407 18.4486 199.35 16.5714C200.322 14.6942 201.633 13.2502 203.282 12.2394C204.931 11.2286 206.773 10.7232 208.805 10.7232C210.543 10.7232 212.06 11.0698 213.355 11.7629C214.681 12.456 215.697 13.3657 216.404 14.492V12.1805C216.404 11.567 216.913 11.0698 217.538 11.0698H222.827C223.452 11.0698 223.96 11.567 223.96 12.1805V34.1314C223.96 34.7449 223.452 35.2422 222.827 35.2422H217.538C216.913 35.2422 216.404 34.7449 216.404 34.1314V31.82C215.668 32.9464 214.637 33.856 213.311 34.5492C212.016 35.2422 210.498 35.5888 208.761 35.5888C206.758 35.5888 204.931 35.0834 203.282 34.0726C201.633 33.0329 200.322 31.5744 199.35 29.6973C198.407 27.7912 197.935 25.5963 197.935 23.1127ZM216.404 23.1559C216.404 21.3076 215.874 19.8493 214.814 18.7807C213.783 17.7121 212.516 17.1778 211.015 17.1778C209.512 17.1778 208.23 17.7121 207.169 18.7807C206.139 19.8203 205.624 21.2644 205.624 23.1127C205.624 24.9609 206.139 26.4338 207.169 27.5312C208.23 28.5999 209.512 29.1341 211.015 29.1341C212.516 29.1341 213.783 28.5999 214.814 27.5312C215.874 26.4628 216.404 25.0043 216.404 23.1559Z" fill="#151304"/>
<path d="M161.352 8.05873C162.194 8.87805 163.268 9.28772 164.574 9.28772C165.851 9.28772 166.896 8.87805 167.708 8.05873C168.55 7.20788 168.971 6.16797 168.971 4.93898C168.971 3.67848 168.55 2.63855 167.708 1.81923C166.896 0.968393 165.851 0.542969 164.574 0.542969C163.268 0.542969 162.194 0.968393 161.352 1.81923C160.539 2.63855 160.133 3.67848 160.133 4.93898C160.133 6.16797 160.539 7.20788 161.352 8.05873Z" fill="#151304"/>
</g>
<defs>
<clipPath id="clip0_3419_5061">
<rect width="225" height="48" fill="white" transform="translate(0 0.181641)"/>
</clipPath>
</defs>
</svg>
