<svg width="109" height="24" viewBox="0 0 109 24" fill="none" xmlns="http://www.w3.org/2000/svg">
<path fill-rule="evenodd" clip-rule="evenodd" d="M23.3652 6.74851C24.1005 8.52209 24.3544 10.3393 24.3876 12.0632C24.3203 14.7928 23.3885 17.3037 21.8604 19.3225C20.9759 20.1885 19.9017 20.3966 18.7066 19.2401L18.6038 19.1374C18.3409 18.8673 18.0723 18.5308 17.7987 18.1207C16.4486 16.0968 15.2195 15.1297 14.198 14.722L19.7005 8.76634C19.9931 8.44975 19.7748 7.92716 19.35 7.92716H16.8052C16.672 7.92716 16.5444 7.9838 16.453 8.08363L11.2523 13.7676C11.2523 13.7676 11.2417 13.4732 11.2233 12.9822C11.2448 11.1933 11.2366 7.20488 10.823 4.0542C10.7901 3.55625 10.7599 3.2171 10.735 3.11449C10.699 2.9664 10.6876 2.81835 10.6917 2.67804C10.6964 2.58894 10.7045 2.50214 10.7164 2.41758C10.7706 2.07341 10.8919 1.82364 10.8919 1.82364H10.8694C11.7309 -0.383843 15.4859 -0.539541 18.4833 1.0983C20.631 2.41708 22.3472 4.39105 23.3652 6.74851ZM1.41615 5.92938C2.62785 3.70747 4.31668 3.00996 5.60709 3.57116C7.34418 4.53262 8.06639 7.11634 8.06639 10.0809C8.06639 10.2017 8.06801 10.2994 8.06949 10.3901C8.07222 10.5538 8.07455 10.6951 8.06639 10.9097V18.6556C8.06639 19.0672 8.39102 19.401 8.79156 19.401H10.5271C10.9276 19.401 11.2523 19.0672 11.2523 18.6556V15.6036C11.5653 16.0001 11.9924 16.4074 12.5683 16.7337C19.4822 21.0592 10.3549 25.8663 4.87828 21.6825C2.88008 20.1561 1.24644 17.6597 0.511793 15.317C0.178868 14.1856 0 12.9864 0 11.7447C0 9.64364 0.512121 7.66436 1.41615 5.92938Z" fill="white"/>
<path d="M36.3719 17.5303C36.1972 17.5303 36.0329 17.4452 35.9303 17.3014L32.4735 12.4619V16.9749C32.4735 17.2816 32.2291 17.5303 31.9275 17.5303H29.3781C29.0766 17.5303 28.832 17.2816 28.832 16.9749V2.05734C28.832 1.75061 29.0766 1.50195 29.3781 1.50195H31.9275C32.2291 1.50195 32.4735 1.75061 32.4735 2.05734V10.3608L35.9087 5.66779C36.0118 5.527 36.1742 5.44406 36.3467 5.44406H39.4042C39.8664 5.44406 40.1196 5.99178 39.8247 6.35378L35.6253 11.5088L39.8527 16.6173C40.1517 16.9785 39.8992 17.5303 39.4351 17.5303H36.3719ZM46.3403 17.7036C45.1761 17.7036 44.1255 17.4509 43.1886 16.9455C42.2658 16.44 41.5346 15.7181 40.9951 14.7795C40.4699 13.8408 40.2072 12.7434 40.2072 11.4872C40.2072 10.2454 40.477 9.15515 41.0165 8.21653C41.5559 7.26349 42.2942 6.53427 43.2311 6.02888C44.1681 5.52347 45.2187 5.27078 46.3829 5.27078C47.547 5.27078 48.5975 5.52347 49.5345 6.02888C50.4716 6.53427 51.2098 7.26349 51.7493 8.21653C52.2887 9.15515 52.5585 10.2454 52.5585 11.4872C52.5585 12.729 52.2816 13.8264 51.7279 14.7795C51.1885 15.7181 50.4431 16.44 49.4919 16.9455C48.555 17.4509 47.5044 17.7036 46.3403 17.7036ZM46.3403 14.4979C47.0359 14.4979 47.6251 14.238 48.1078 13.7182C48.6047 13.1983 48.8531 12.4546 48.8531 11.4872C48.8531 10.5197 48.6118 9.77604 48.1291 9.25622C47.6606 8.73636 47.0785 8.47644 46.3829 8.47644C45.673 8.47644 45.0839 8.73636 44.6153 9.25622C44.1469 9.76164 43.9126 10.5053 43.9126 11.4872C43.9126 12.4546 44.1398 13.1983 44.5941 13.7182C45.0625 14.238 45.6447 14.4979 46.3403 14.4979ZM58.2597 17.7036C57.2233 17.7036 56.3005 17.5231 55.4912 17.1621C54.6821 16.8011 54.0431 16.3101 53.5747 15.6892C53.2275 15.2184 52.9934 14.7079 52.8723 14.1577C52.8029 13.8426 53.0573 13.5665 53.3747 13.5665H55.8933C56.173 13.5665 56.395 13.7904 56.5159 14.0471C56.6131 14.2534 56.7614 14.4326 56.9607 14.5846C57.3014 14.8445 57.7202 14.9744 58.2171 14.9744C58.6714 14.9744 59.0192 14.8878 59.2606 14.7145C59.5161 14.5268 59.6439 14.2885 59.6439 13.9997C59.6439 13.6532 59.4664 13.4005 59.1115 13.2416C58.7566 13.0683 58.1816 12.8807 57.3865 12.6784C56.5348 12.4763 55.8249 12.2669 55.257 12.0504C54.6891 11.8193 54.1993 11.4656 53.7877 10.989C53.3759 10.498 53.1701 9.84102 53.1701 9.01791C53.1701 8.32483 53.3546 7.69669 53.7238 7.13354C54.1071 6.55594 54.6607 6.10107 55.3847 5.76896C56.1231 5.43684 56.9961 5.27078 58.0041 5.27078C59.4948 5.27078 60.6661 5.64622 61.5178 6.39709C62.2375 7.02109 62.7024 7.81462 62.9121 8.77769C62.9823 9.09951 62.7265 9.38618 62.4024 9.38618H60.1198C59.847 9.38618 59.6283 9.17409 59.5134 8.92262C59.4178 8.71407 59.2769 8.53649 59.0902 8.3898C58.792 8.14433 58.3945 8.02159 57.8976 8.02159C57.4718 8.02159 57.1452 8.10823 56.9181 8.28151C56.6909 8.44035 56.5774 8.66417 56.5774 8.95293C56.5774 9.29951 56.7548 9.55942 57.1097 9.73275C57.4789 9.906 58.0467 10.0792 58.8134 10.2526C59.6935 10.4836 60.4105 10.7146 60.9642 10.9456C61.5178 11.1623 62.0006 11.5232 62.4122 12.0287C62.8382 12.5196 63.0582 13.1839 63.0724 14.0214C63.0724 14.7289 62.8736 15.3643 62.4761 15.9274C62.0928 16.4761 61.532 16.9094 60.7938 17.2271C60.0698 17.5448 59.2251 17.7036 58.2597 17.7036ZM71.5398 5.3141C72.9026 5.3141 73.9958 5.77618 74.8192 6.70034C75.6426 7.61005 76.0543 8.86633 76.0543 10.4692V16.9749C76.0543 17.2816 75.81 17.5303 75.5083 17.5303H72.9801C72.6788 17.5303 72.4342 17.2816 72.4342 16.9749V10.9673C72.4342 10.1587 72.2283 9.53053 71.8166 9.08289C71.4048 8.63529 70.8511 8.41147 70.1555 8.41147C69.4599 8.41147 68.9063 8.63529 68.4945 9.08289C68.0828 9.53053 67.8769 10.1587 67.8769 10.9673V16.9749C67.8769 17.2816 67.6326 17.5303 67.3309 17.5303H64.7815C64.48 17.5303 64.2354 17.2816 64.2354 16.9749V2.05734C64.2354 1.75061 64.48 1.50195 64.7815 1.50195H67.3309C67.6326 1.50195 67.8769 1.75061 67.8769 2.05734V7.06855C68.2461 6.53427 68.7501 6.10829 69.3889 5.79062C70.0278 5.47294 70.7447 5.3141 71.5398 5.3141ZM80.6153 5.44406C80.917 5.44406 81.1614 5.6927 81.1614 5.99944V16.9749C81.1614 17.2816 80.917 17.5303 80.6153 17.5303H78.0659C77.7645 17.5303 77.5199 17.2816 77.5199 16.9749V5.99944C77.5199 5.6927 77.7645 5.44406 78.0659 5.44406H80.6153ZM82.0115 11.5088C82.0115 10.3104 82.2529 9.24173 82.7356 8.30316C83.2325 7.36457 83.8927 6.63535 84.716 6.11552C85.5536 5.58123 86.4623 5.3141 87.4418 5.3141C88.1943 5.3141 88.8687 5.45128 89.4649 5.72563C90.0614 5.98555 90.544 6.35378 90.9129 6.83029V5.99944C90.9129 5.6927 91.1574 5.44406 91.4587 5.44406H94.008C94.3103 5.44406 94.5547 5.6927 94.5547 5.99944V22.7365C94.5547 23.0432 94.3103 23.2919 94.008 23.2919H91.4587C91.1574 23.2919 90.9129 23.0432 90.9129 22.7365V16.0141C90.5014 16.5195 89.9974 16.9238 89.4009 17.2271C88.819 17.5303 88.1517 17.6819 87.3992 17.6819C86.4339 17.6819 85.5395 17.422 84.716 16.9022C83.8927 16.3824 83.2325 15.6531 82.7356 14.7145C82.2529 13.7759 82.0115 12.7073 82.0115 11.5088ZM90.9129 11.4872C90.9129 10.8374 90.7849 10.2959 90.5298 9.86271C90.288 9.41506 89.9689 9.08289 89.5716 8.86633C89.1743 8.63529 88.7551 8.51977 88.315 8.51977C87.889 8.51977 87.4774 8.63529 87.0799 8.86633C86.6823 9.08289 86.3558 9.41506 86.1002 9.86271C85.8447 10.3104 85.7169 10.8591 85.7169 11.5088C85.7169 12.1586 85.8447 12.7073 86.1002 13.155C86.3558 13.5882 86.6823 13.9203 87.0799 14.1513C87.4774 14.368 87.889 14.4762 88.315 14.4762C88.7408 14.4762 89.1529 14.368 89.5503 14.1513C89.9618 13.9203 90.288 13.5809 90.5298 13.1333C90.7849 12.6857 90.9129 12.1369 90.9129 11.4872ZM95.4 11.4656C95.4 10.2237 95.6276 9.13346 96.0818 8.19487C96.5503 7.25627 97.1823 6.53427 97.9769 6.02888C98.7716 5.52347 99.6596 5.27078 100.639 5.27078C101.476 5.27078 102.208 5.44406 102.832 5.79062C103.471 6.13717 103.961 6.59203 104.301 7.15519V5.99944C104.301 5.6927 104.547 5.44406 104.848 5.44406H107.397C107.699 5.44406 107.943 5.6927 107.943 5.99944V16.9749C107.943 17.2816 107.699 17.5303 107.397 17.5303H104.848C104.547 17.5303 104.301 17.2816 104.301 16.9749V15.8192C103.947 16.3824 103.45 16.8372 102.811 17.1838C102.187 17.5303 101.455 17.7036 100.618 17.7036C99.6525 17.7036 98.7716 17.4509 97.9769 16.9455C97.1823 16.4256 96.5503 15.6964 96.0818 14.7578C95.6276 13.8048 95.4 12.7073 95.4 11.4656ZM104.301 11.4872C104.301 10.563 104.046 9.83382 103.535 9.29951C103.038 8.76524 102.428 8.4981 101.704 8.4981C100.98 8.4981 100.362 8.76524 99.8507 9.29951C99.3538 9.81933 99.1058 10.5414 99.1058 11.4656C99.1058 12.3896 99.3538 13.1261 99.8507 13.6748C100.362 14.2091 100.98 14.4762 101.704 14.4762C102.428 14.4762 103.038 14.2091 103.535 13.6748C104.046 13.1406 104.301 12.4113 104.301 11.4872Z" fill="white"/>
<path d="M77.7672 3.93757C78.1729 4.34723 78.6905 4.55206 79.32 4.55206C79.9356 4.55206 80.4392 4.34723 80.831 3.93757C81.2367 3.51215 81.4395 2.99219 81.4395 2.37769C81.4395 1.74744 81.2367 1.22748 80.831 0.817818C80.4392 0.392399 79.9356 0.179688 79.32 0.179688C78.6905 0.179688 78.1729 0.392399 77.7672 0.817818C77.3755 1.22748 77.1797 1.74744 77.1797 2.37769C77.1797 2.99219 77.3755 3.51215 77.7672 3.93757Z" fill="white"/>
</svg>
