<svg width="167" height="50" viewBox="0 0 167 50" fill="none" xmlns="http://www.w3.org/2000/svg">
<g clip-path="url(#clip0_3436_5595)">
<path fill-rule="evenodd" clip-rule="evenodd" d="M13.2994 0.625002H153.621C154.122 0.625002 154.632 0.62484 155.133 0.62733C155.48 0.629311 155.834 0.634535 156.184 0.639691C156.262 0.640852 156.341 0.642009 156.419 0.643125C157.354 0.652395 158.286 0.725949 159.209 0.863135C160.134 1.00368 161.031 1.26672 161.87 1.64355C163.548 2.4124 164.913 3.63115 165.774 5.12841C166.195 5.87445 166.486 6.67326 166.638 7.49744C166.793 8.32116 166.88 9.15409 166.896 9.98929C166.902 10.371 166.902 10.7538 166.902 11.1355C166.913 11.5865 166.913 12.0386 166.913 12.4944V38.544C166.913 39.0035 166.913 39.4532 166.902 39.9054C166.902 40.2919 166.902 40.6663 166.896 41.0529C166.88 41.888 166.793 42.7209 166.638 43.5446C166.486 44.3693 166.195 45.1685 165.774 45.9149C165.346 46.6576 164.79 47.3357 164.126 47.9241C163.467 48.5177 162.705 49.013 161.87 49.3913C161.031 49.7691 160.134 50.0337 159.209 50.1764C158.286 50.3125 157.354 50.386 156.419 50.3965C155.994 50.4049 155.558 50.4098 155.133 50.4098C154.632 50.4123 154.122 50.4123 153.621 50.4123H13.2994C12.7879 50.4123 12.2825 50.4123 11.7724 50.4098C11.3454 50.4098 10.9218 50.4049 10.4906 50.3965C9.55407 50.3854 8.61975 50.3119 7.6955 50.1764C6.7726 50.0347 5.87881 49.77 5.04407 49.3913C4.20832 49.0132 3.44603 48.5179 2.7863 47.9241C2.12047 47.338 1.56547 46.6594 1.14287 45.9149C0.718496 45.1691 0.424501 44.3697 0.271088 43.5446C0.115791 42.721 0.0322221 41.888 0.0211319 41.0529C0.0122885 40.7888 0.00884884 40.5303 0.00538196 40.2699C0.00377433 40.1491 0.00216085 40.0278 0 39.9054V11.1355C0.00218646 11.0132 0.0038125 10.8907 0.00543911 10.7682C0.00888681 10.5085 0.0123371 10.2486 0.0211319 9.98934C0.0322187 9.15421 0.115787 8.3211 0.271088 7.49749C0.424926 6.67283 0.718903 5.87396 1.14287 5.12846C1.56566 4.38147 2.12059 3.70016 2.7863 3.11072C3.44854 2.51962 4.21034 2.02461 5.04407 1.64366C5.87881 1.26591 6.7727 1.0028 7.6955 0.863247C8.61959 0.726663 9.55401 0.653134 10.4906 0.643299C10.5801 0.642035 10.6693 0.640722 10.7583 0.639413C11.0978 0.634414 11.434 0.629464 11.7724 0.627492C12.2826 0.625002 12.7879 0.625002 13.2994 0.625002ZM10.3956 49.3136C10.818 49.3221 11.2334 49.3269 11.6591 49.3269L153.746 49.3294L155.26 49.3269C155.677 49.3269 156.105 49.3221 156.514 49.3136C157.389 49.3041 158.262 49.2362 159.126 49.1105C159.937 48.988 160.723 48.7572 161.457 48.4261C162.181 48.0981 162.841 47.6683 163.412 47.1531C163.984 46.6481 164.463 46.0659 164.831 45.428C165.201 44.7735 165.455 44.0723 165.586 43.3489C165.728 42.586 165.808 41.8148 165.824 41.0414C165.83 40.6597 165.83 40.2889 165.83 39.884C165.841 39.4391 165.841 38.9978 165.841 38.5455V12.4905C165.841 12.0425 165.841 11.5981 165.83 11.1313C165.83 10.7544 165.83 10.3757 165.826 10.0231C165.809 9.23572 165.728 8.45048 165.583 7.67363C165.451 6.95968 165.199 6.26758 164.835 5.62082C164.091 4.32744 162.911 3.274 161.461 2.60815C160.725 2.27883 159.938 2.04897 159.126 1.92611C158.267 1.80057 157.399 1.73291 156.529 1.72369L155.254 1.70788H11.6598L10.3991 1.72308C9.52104 1.73278 8.64507 1.80105 7.7785 1.92733C6.97473 2.04866 6.196 2.27694 5.46839 2.6045C4.74456 2.9349 4.08338 3.36443 3.50896 3.87742C2.9339 4.38558 2.45491 4.9733 2.09055 5.61778C1.72063 6.26904 1.46456 6.96683 1.3312 7.687C1.18789 8.45753 1.11057 9.23665 1.09992 10.0176C1.09174 10.2705 1.07939 11.1313 1.07939 11.1313V39.8901C1.07939 39.8901 1.09099 40.7643 1.09985 41.0269C1.11097 41.8091 1.18875 42.5894 1.33249 43.3612C1.46559 44.0794 1.72147 44.7751 2.0912 45.4243C2.4569 46.0692 2.93856 46.6565 3.51711 47.1628C4.0874 47.6752 4.74647 48.1025 5.46907 48.4284C6.19836 48.7571 6.97857 48.9869 7.78396 49.1105C8.6477 49.2356 9.52064 49.3034 10.3956 49.3136Z" fill="#A6A6A6" fill-opacity="0.4"/>
<path d="M11.6579 49.328C11.2322 49.328 10.8167 49.3232 10.3944 49.3147C9.51937 49.3045 8.64643 49.2367 7.7827 49.1116C6.97731 48.988 6.1971 48.7582 5.46781 48.4295C4.74521 48.1036 4.08614 47.6763 3.51585 47.1639C2.9373 46.6576 2.45563 46.0703 2.08993 45.4254C1.7202 44.7762 1.46433 44.0805 1.33122 43.3623C1.18748 42.5905 1.10971 41.8102 1.09858 41.028C1.08972 40.7654 1.07812 39.8912 1.07812 39.8912V11.1324C1.07812 11.1324 1.09048 10.2716 1.09865 10.0187C1.10931 9.23775 1.18662 8.45863 1.32994 7.6881C1.46329 6.96793 1.71936 6.27014 2.08929 5.61889C2.45364 4.9744 2.93264 4.38668 3.5077 3.87852C4.08211 3.36553 4.74329 2.936 5.46712 2.6056C6.19474 2.27804 6.97347 2.04977 7.77723 1.92843C8.64381 1.80215 9.51978 1.73388 10.3978 1.72419L11.6586 1.70898H155.252L156.528 1.7248C157.398 1.73401 158.266 1.80167 159.125 1.92721C159.937 2.05007 160.724 2.27993 161.46 2.60925C162.91 3.2751 164.09 4.32855 164.834 5.62192C165.198 6.26868 165.45 6.96078 165.582 7.67473C165.727 8.45158 165.808 9.23682 165.825 10.0242C165.829 10.3768 165.829 10.7555 165.829 11.1324C165.84 11.5992 165.84 12.0436 165.84 12.4916V38.5466C165.84 38.9989 165.84 39.4402 165.829 39.8851C165.829 40.29 165.829 40.6609 165.823 41.0425C165.807 41.8159 165.727 42.5871 165.584 43.35C165.454 44.0734 165.2 44.7747 164.83 45.4291C164.462 46.067 163.983 46.6492 163.411 47.1542C162.84 47.6694 162.18 48.0992 161.455 48.4272C160.722 48.7583 159.936 48.9891 159.125 49.1116C158.261 49.2373 157.388 49.3052 156.513 49.3147C156.104 49.3232 155.675 49.328 155.259 49.328L153.745 49.3305L11.6579 49.328Z" fill="black"/>
<path d="M26.1708 24.5912L12.9253 38.6678C12.9258 38.6708 12.9268 38.6732 12.9273 38.6761C13.3335 40.2046 14.7278 41.3301 16.3826 41.3301C17.0441 41.3301 17.6651 41.151 18.1977 40.8367L18.24 40.8118L33.1495 32.1975L26.1708 24.5912Z" fill="#EB3131"/>
<path d="M39.568 22.1936L39.5553 22.1849L33.1185 18.4486L25.8667 24.9099L33.1438 32.1953L39.5466 28.4962C40.6692 27.8894 41.4312 26.7044 41.4312 25.338C41.4312 23.9814 40.6794 22.8024 39.568 22.1936Z" fill="#F6B60B"/>
<path d="M12.9208 11.9512C12.8412 12.2452 12.7993 12.5531 12.7993 12.8729V37.7469C12.7993 38.066 12.8407 38.375 12.9213 38.668L26.6226 24.9515L12.9208 11.9512Z" fill="#5778C5"/>
<path d="M26.2689 25.3086L33.1247 18.4459L18.2322 9.80044C17.6909 9.4758 17.0591 9.28845 16.3831 9.28845C14.7283 9.28845 13.3321 10.4159 12.9258 11.9463C12.9253 11.9478 12.9253 11.9488 12.9253 11.9502L26.2689 25.3086Z" fill="#3BAD49"/>
<path d="M60.5277 12.7998C60.5502 13.2565 60.4801 13.713 60.3217 14.1416C60.1633 14.5702 59.9199 14.9619 59.6063 15.2927C59.2549 15.6596 58.8305 15.9477 58.3609 16.1381C57.8913 16.3285 57.3871 16.4169 56.8812 16.3976C56.3721 16.4022 55.8672 16.3043 55.3962 16.1097C54.9252 15.915 54.4976 15.6275 54.1385 15.2641C53.7795 14.9007 53.4962 14.4687 53.3054 13.9935C53.1145 13.5184 53.02 13.0096 53.0272 12.4971C53.02 11.9845 53.1146 11.4757 53.3055 11.0005C53.4963 10.5253 53.7796 10.0933 54.1386 9.7299C54.4977 9.36646 54.9252 9.07892 55.3962 8.88417C55.8672 8.68943 56.3721 8.5914 56.8812 8.59585C57.4047 8.59426 57.9229 8.7008 58.4038 8.90889C58.8505 9.09116 59.2481 9.37707 59.5642 9.74332L58.9121 10.4003C58.6636 10.1058 58.3513 9.87281 57.9991 9.71918C57.647 9.56555 57.2645 9.49541 56.8812 9.51417C56.4953 9.51216 56.1131 9.58857 55.7572 9.73882C55.4014 9.88907 55.0794 10.1101 54.8104 10.3886C54.5414 10.6671 54.331 10.9974 54.1918 11.3597C54.0527 11.722 53.9876 12.1088 54.0004 12.4971C53.9912 13.0786 54.1537 13.6497 54.4674 14.1381C54.7811 14.6265 55.2318 15.0101 55.7623 15.2403C56.2928 15.4705 56.8793 15.537 57.4474 15.4312C58.0155 15.3254 58.5395 15.0521 58.9531 14.6461C59.3338 14.2332 59.5545 13.6963 59.5749 13.1333H56.8812V12.2363H60.4758C60.5097 12.4222 60.5271 12.6108 60.5277 12.7998Z" fill="white"/>
<path d="M66.2266 9.68071H62.8483V12.0485H65.8946V12.9456H62.8483V15.3134H66.2266V16.2311H61.8956V8.76301H66.2266V9.68071Z" fill="white"/>
<path d="M70.2461 16.2311H69.2922V9.68071H67.2203V8.76301H72.318V9.68071H70.2461V16.2311Z" fill="white"/>
<path d="M76.0067 16.2311V8.76301H76.9593V16.2311H76.0067Z" fill="white"/>
<path d="M81.1877 16.2311H80.2338V9.68071H78.162V8.76301H83.2596V9.68071H81.1877V16.2311Z" fill="white"/>
<path d="M92.9099 15.266C92.1878 15.9907 91.2098 16.3976 90.1902 16.3976C89.1706 16.3976 88.1926 15.9907 87.4705 15.266C87.1133 14.9017 86.8325 14.4689 86.6448 13.9933C86.4571 13.5176 86.3663 13.0088 86.3778 12.4971C86.3663 11.9853 86.4571 11.4765 86.6448 11.0009C86.8325 10.5252 87.1133 10.0924 87.4705 9.72813C87.8274 9.36875 88.2512 9.08376 88.7176 8.88947C89.1841 8.69517 89.684 8.5954 90.1888 8.59585C90.6936 8.5963 91.1933 8.69697 91.6594 8.8921C92.1255 9.08722 92.5488 9.37297 92.9051 9.73299C93.2625 10.0963 93.5439 10.5281 93.7324 11.0029C93.921 11.4777 94.0128 11.9858 94.0026 12.4971C94.0138 13.0087 93.9229 13.5174 93.7352 13.9931C93.5475 14.4687 93.2669 14.9016 92.9099 15.266ZM88.1744 14.6406C88.7092 15.1781 89.4339 15.4799 90.1896 15.4799C90.9452 15.4799 91.67 15.1781 92.2048 14.6406C92.479 14.358 92.6935 14.0223 92.8352 13.6539C92.977 13.2855 93.043 12.8919 93.0295 12.4971C93.043 12.1022 92.977 11.7087 92.8352 11.3402C92.6935 10.9718 92.479 10.6361 92.2048 10.3535C91.67 9.81602 90.9452 9.51416 90.1896 9.51416C89.4339 9.51416 88.7092 9.81602 88.1744 10.3535C87.9005 10.6363 87.6864 10.9721 87.5449 11.3405C87.4034 11.7089 87.3374 12.1023 87.351 12.4971C87.3374 12.8918 87.4034 13.2852 87.5449 13.6536C87.6864 14.022 87.9005 14.3578 88.1744 14.6406Z" fill="white"/>
<path d="M95.3404 16.2311V8.76301H96.5008L100.106 14.5726H100.147L100.106 13.1333V8.76301H101.06V16.2311H100.065L96.293 10.1401H96.252L96.293 11.5793V16.2311H95.3404Z" fill="white"/>
<path d="M60.5277 12.7998C60.5502 13.2565 60.4801 13.713 60.3217 14.1416C60.1633 14.5702 59.9199 14.9619 59.6063 15.2927C59.2549 15.6596 58.8305 15.9477 58.3609 16.1381C57.8913 16.3285 57.3871 16.4169 56.8812 16.3976C56.3721 16.4022 55.8672 16.3043 55.3962 16.1097C54.9252 15.915 54.4976 15.6275 54.1385 15.2641C53.7795 14.9007 53.4962 14.4687 53.3054 13.9935C53.1145 13.5184 53.02 13.0096 53.0272 12.4971C53.02 11.9845 53.1146 11.4757 53.3055 11.0005C53.4963 10.5253 53.7796 10.0933 54.1386 9.7299C54.4977 9.36646 54.9252 9.07892 55.3962 8.88417C55.8672 8.68943 56.3721 8.5914 56.8812 8.59585C57.4047 8.59426 57.9229 8.7008 58.4038 8.90889C58.8505 9.09116 59.2481 9.37707 59.5642 9.74332L58.9121 10.4003C58.6636 10.1058 58.3513 9.87281 57.9991 9.71918C57.647 9.56555 57.2645 9.49541 56.8812 9.51417C56.4953 9.51216 56.1131 9.58857 55.7572 9.73882C55.4014 9.88907 55.0794 10.1101 54.8104 10.3886C54.5414 10.6671 54.331 10.9974 54.1918 11.3597C54.0527 11.722 53.9876 12.1088 54.0004 12.4971C53.9912 13.0786 54.1537 13.6497 54.4674 14.1381C54.7811 14.6265 55.2318 15.0101 55.7623 15.2403C56.2928 15.4705 56.8793 15.537 57.4474 15.4312C58.0155 15.3254 58.5395 15.0521 58.9531 14.6461C59.3338 14.2332 59.5545 13.6963 59.5749 13.1333H56.8812V12.2363H60.4758C60.5097 12.4222 60.5271 12.6108 60.5277 12.7998Z" stroke="white" stroke-width="0.248936" stroke-miterlimit="10"/>
<path d="M66.2266 9.68071H62.8483V12.0485H65.8946V12.9456H62.8483V15.3134H66.2266V16.2311H61.8956V8.76301H66.2266V9.68071Z" stroke="white" stroke-width="0.248936" stroke-miterlimit="10"/>
<path d="M70.2461 16.2311H69.2922V9.68071H67.2203V8.76301H72.318V9.68071H70.2461V16.2311Z" stroke="white" stroke-width="0.248936" stroke-miterlimit="10"/>
<path d="M76.0067 16.2311V8.76301H76.9593V16.2311H76.0067Z" stroke="white" stroke-width="0.248936" stroke-miterlimit="10"/>
<path d="M81.1877 16.2311H80.2338V9.68071H78.162V8.76301H83.2596V9.68071H81.1877V16.2311Z" stroke="white" stroke-width="0.248936" stroke-miterlimit="10"/>
<path d="M92.9099 15.266C92.1878 15.9907 91.2098 16.3976 90.1902 16.3976C89.1706 16.3976 88.1926 15.9907 87.4705 15.266C87.1133 14.9017 86.8325 14.4689 86.6448 13.9933C86.4571 13.5176 86.3663 13.0088 86.3778 12.4971C86.3663 11.9853 86.4571 11.4765 86.6448 11.0009C86.8325 10.5252 87.1133 10.0924 87.4705 9.72813C87.8274 9.36875 88.2512 9.08376 88.7176 8.88947C89.1841 8.69517 89.684 8.5954 90.1888 8.59585C90.6936 8.5963 91.1933 8.69697 91.6594 8.8921C92.1255 9.08722 92.5488 9.37297 92.9051 9.73299C93.2625 10.0963 93.5439 10.5281 93.7324 11.0029C93.921 11.4777 94.0128 11.9858 94.0026 12.4971C94.0138 13.0087 93.9229 13.5174 93.7352 13.9931C93.5475 14.4687 93.2669 14.9016 92.9099 15.266ZM88.1744 14.6406C88.7092 15.1781 89.4339 15.4799 90.1896 15.4799C90.9452 15.4799 91.67 15.1781 92.2048 14.6406C92.479 14.358 92.6935 14.0223 92.8352 13.6539C92.977 13.2855 93.043 12.8919 93.0295 12.4971C93.043 12.1022 92.977 11.7087 92.8352 11.3402C92.6935 10.9718 92.479 10.6361 92.2048 10.3535C91.67 9.81602 90.9452 9.51416 90.1896 9.51416C89.4339 9.51416 88.7092 9.81602 88.1744 10.3535C87.9005 10.6363 87.6864 10.9721 87.5449 11.3405C87.4034 11.7089 87.3374 12.1023 87.351 12.4971C87.3374 12.8918 87.4034 13.2852 87.5449 13.6536C87.6864 14.022 87.9005 14.3578 88.1744 14.6406Z" stroke="white" stroke-width="0.248936" stroke-miterlimit="10"/>
<path d="M95.3404 16.2311V8.76301H96.5008L100.106 14.5726H100.147L100.106 13.1333V8.76301H101.06V16.2311H100.065L96.293 10.1401H96.252L96.293 11.5793V16.2311H95.3404Z" stroke="white" stroke-width="0.248936" stroke-miterlimit="10"/>
<path d="M86.1433 27.1259C85.1041 27.1298 84.0894 27.4437 83.2272 28.0278C82.3651 28.6119 81.6942 29.44 81.2992 30.4077C80.9042 31.3754 80.803 32.4392 81.0081 33.4648C81.2133 34.4904 81.7157 35.4317 82.4519 36.1701C83.1881 36.9084 84.1252 37.4106 85.1447 37.6133C86.1642 37.8159 87.2205 37.7099 88.1802 37.3086C89.14 36.9073 89.9601 36.2288 90.537 35.3586C91.1139 34.4885 91.4218 33.4658 91.4218 32.4196C91.432 31.7199 91.3023 31.0252 91.0404 30.377C90.7785 29.7287 90.3897 29.1402 89.8973 28.6463C89.4048 28.1524 88.8187 27.7632 88.1737 27.502C87.5288 27.2408 86.8383 27.1129 86.1433 27.1259ZM86.1433 35.628C85.5033 35.674 84.8644 35.5249 84.3098 35.2001C83.7551 34.8754 83.3105 34.3901 83.0336 33.8074C82.7568 33.2247 82.6607 32.5716 82.7577 31.9331C82.8548 31.2946 83.1406 30.7004 83.5778 30.2277C84.0151 29.755 84.5836 29.4257 85.2093 29.2829C85.835 29.14 86.4889 29.1901 87.086 29.4266C87.683 29.6631 88.1955 30.0751 88.5567 30.6089C88.9179 31.1427 89.1111 31.7737 89.1111 32.4196C89.1305 32.8277 89.0687 33.2355 88.9292 33.6191C88.7896 34.0028 88.5753 34.3544 88.2987 34.6534C88.0222 34.9523 87.689 35.1926 87.3189 35.36C86.9487 35.5274 86.549 35.6185 86.1433 35.628ZM74.6283 27.1259C73.5891 27.1298 72.5743 27.4436 71.7122 28.0277C70.85 28.6118 70.1791 29.44 69.7841 30.4076C69.3891 31.3753 69.2878 32.4391 69.493 33.4647C69.6981 34.4903 70.2005 35.4317 70.9367 36.1701C71.6729 36.9084 72.61 37.4106 73.6295 37.6133C74.649 37.8159 75.7053 37.7099 76.6651 37.3086C77.6248 36.9074 78.4449 36.2288 79.0218 35.3587C79.5988 34.4885 79.9067 33.4658 79.9067 32.4196C79.9169 31.7199 79.7872 31.0252 79.5253 30.377C79.2634 29.7288 78.8746 29.1402 78.3822 28.6463C77.8897 28.1524 77.3036 27.7633 76.6587 27.5021C76.0138 27.2409 75.3233 27.1129 74.6283 27.1259ZM74.6283 35.628C73.9883 35.674 73.3494 35.5249 72.7948 35.2001C72.2401 34.8754 71.7955 34.3901 71.5186 33.8074C71.2418 33.2247 71.1457 32.5716 71.2427 31.9331C71.3398 31.2946 71.6255 30.7004 72.0628 30.2277C72.5 29.755 73.0685 29.4257 73.6943 29.2829C74.32 29.14 74.9739 29.1901 75.571 29.4266C76.168 29.6631 76.6805 30.0751 77.0417 30.6089C77.4029 31.1427 77.5961 31.7737 77.5961 32.4196C77.6155 32.8277 77.5537 33.2355 77.4142 33.6191C77.2747 34.0028 77.0603 34.3544 76.7838 34.6534C76.5072 34.9524 76.174 35.1926 75.8039 35.36C75.4337 35.5274 75.034 35.6185 74.6283 35.628ZM60.9305 28.7502V30.9959H66.2689C66.1919 32.0493 65.7637 33.0456 65.0538 33.8234C64.5188 34.3723 63.8755 34.8022 63.1653 35.0855C62.4551 35.3687 61.6938 35.4988 60.9305 35.4676C59.3702 35.4463 57.8809 34.8074 56.785 33.6891C55.689 32.5707 55.0746 31.0629 55.0746 29.492C55.0746 27.921 55.689 26.4133 56.785 25.2949C57.8809 24.1766 59.3702 23.5377 60.9305 23.5164C62.4293 23.4967 63.8753 24.0731 64.9543 25.1205L66.5278 23.5364C65.7916 22.8027 64.9173 22.2243 63.9562 21.8352C62.995 21.4461 61.9664 21.2541 60.9305 21.2705C59.8481 21.2546 58.7733 21.4556 57.7686 21.8616C56.764 22.2677 55.8495 22.8707 55.0785 23.6357C54.3074 24.4007 53.6951 25.3124 53.2772 26.3178C52.8593 27.3232 52.644 28.4021 52.644 29.492C52.644 30.5818 52.8593 31.6608 53.2772 32.6662C53.6951 33.6715 54.3074 34.5832 55.0785 35.3482C55.8495 36.1133 56.764 36.7163 57.7686 37.1224C58.7733 37.5284 59.8481 37.7293 60.9305 37.7135C61.9882 37.7576 63.0431 37.5749 64.0253 37.1773C65.0075 36.7797 65.8944 36.1764 66.6273 35.4075C67.9285 33.9777 68.6221 32.0919 68.5596 30.1538C68.5647 29.6831 68.5246 29.2131 68.4399 28.7502H60.9305ZM116.949 30.4946C116.633 29.5357 116.032 28.698 115.226 28.0953C114.421 27.4926 113.451 27.1541 112.448 27.1259C111.772 27.1301 111.104 27.2722 110.485 27.5436C109.865 27.815 109.307 28.21 108.843 28.7048C108.379 29.1996 108.02 29.784 107.787 30.4224C107.555 31.0609 107.453 31.7403 107.488 32.4196C107.473 33.1156 107.597 33.8076 107.853 34.4541C108.11 35.1007 108.493 35.6886 108.98 36.1827C109.467 36.6769 110.048 37.0671 110.689 37.3301C111.329 37.5931 112.015 37.7235 112.707 37.7135C113.573 37.7183 114.427 37.5065 115.192 37.097C115.957 36.6875 116.608 36.0932 117.089 35.3674L115.296 34.1643C115.027 34.6133 114.648 34.9843 114.194 35.2409C113.74 35.4975 113.227 35.6309 112.707 35.628C112.171 35.6486 111.641 35.5067 111.187 35.2207C110.732 34.9347 110.373 34.5177 110.157 34.0239L117.188 31.0963L116.949 30.4946ZM109.779 32.2593C109.754 31.874 109.806 31.4876 109.931 31.1227C110.056 30.7578 110.253 30.4217 110.509 30.1342C110.765 29.8466 111.075 29.6134 111.422 29.448C111.768 29.2827 112.144 29.1886 112.527 29.1712C112.926 29.1448 113.324 29.2372 113.671 29.4369C114.018 29.6366 114.299 29.9347 114.479 30.2942L109.779 32.2593ZM104.062 37.3926H106.372V21.8321H104.062V37.3926ZM100.277 28.3089H100.198C99.8463 27.9247 99.4176 27.6204 98.9401 27.4164C98.4626 27.2124 97.9474 27.1133 97.4288 27.1259C96.0729 27.1839 94.7916 27.7671 93.8526 28.7535C92.9135 29.7399 92.3893 31.0534 92.3893 32.4197C92.3893 33.7859 92.9135 35.0994 93.8526 36.0858C94.7916 37.0723 96.0729 37.6554 97.4288 37.7135C97.9494 37.7274 98.4668 37.627 98.945 37.4193C99.4231 37.2115 99.8506 36.9013 100.198 36.5104H100.277V37.2724C100.277 39.2977 99.2017 40.3805 97.4686 40.3805C96.8911 40.3665 96.3307 40.1798 95.8589 39.8442C95.3871 39.5085 95.0253 39.039 94.8195 38.4955L92.8077 39.3378C93.1869 40.2672 93.833 41.0614 94.6634 41.6187C95.4938 42.176 96.4706 42.471 97.4686 42.4659C100.178 42.4659 102.468 40.8618 102.468 36.9515V27.4466H100.277V28.3089ZM97.6281 35.628C96.8295 35.5598 96.0854 35.1923 95.5431 34.5982C95.0009 34.004 94.6999 33.2265 94.6999 32.4197C94.6999 31.6128 95.0009 30.8353 95.5431 30.2412C96.0854 29.647 96.8295 29.2795 97.6281 29.2113C98.0254 29.2308 98.4148 29.3307 98.773 29.5049C99.1311 29.6792 99.4508 29.9242 99.7129 30.2255C99.9749 30.5268 100.174 30.8781 100.298 31.2585C100.423 31.6389 100.47 32.0406 100.437 32.4396C100.468 32.8362 100.419 33.2351 100.293 33.6123C100.168 33.9895 99.9679 34.3373 99.7057 34.635C99.4436 34.9326 99.1244 35.174 98.7674 35.3446C98.4105 35.5152 98.023 35.6116 97.6281 35.628ZM127.773 21.8323H122.244V37.3926H124.551V31.4973H127.773C128.425 31.5333 129.078 31.435 129.692 31.2084C130.305 30.9818 130.866 30.6317 131.341 30.1794C131.815 29.7272 132.193 29.1822 132.452 28.578C132.71 27.9737 132.843 27.3227 132.843 26.6648C132.843 26.0069 132.71 25.356 132.452 24.7517C132.193 24.1474 131.815 23.6025 131.341 23.1502C130.866 22.6979 130.305 22.3478 129.692 22.1212C129.078 21.8946 128.425 21.7963 127.773 21.8323ZM127.832 29.3318H124.551V23.998H127.832C128.185 23.9906 128.535 24.0542 128.863 24.1849C129.191 24.3156 129.489 24.5109 129.741 24.7592C129.993 25.0076 130.193 25.3041 130.33 25.6313C130.466 25.9586 130.537 26.3099 130.537 26.6649C130.537 27.0198 130.466 27.3712 130.33 27.6984C130.193 28.0257 129.993 28.3221 129.741 28.5705C129.489 28.8189 129.191 29.0142 128.863 29.1449C128.535 29.2756 128.185 29.3392 127.832 29.3318ZM142.09 27.0972C141.248 27.0477 140.41 27.2468 139.679 27.67C138.947 28.0931 138.355 28.722 137.974 29.4794L140.022 30.3402C140.225 29.9643 140.532 29.6562 140.907 29.4535C141.281 29.2508 141.706 29.1624 142.13 29.1991C142.715 29.1416 143.299 29.32 143.754 29.6953C144.208 30.0705 144.497 30.612 144.556 31.2009V31.3611C143.815 30.9649 142.988 30.7586 142.149 30.7606C139.942 30.7606 137.695 31.9817 137.695 34.2639C137.717 34.7448 137.834 35.2165 138.04 35.651C138.246 36.0855 138.536 36.4739 138.894 36.7932C139.252 37.1124 139.67 37.3561 140.124 37.5096C140.577 37.6632 141.056 37.7235 141.533 37.687C142.114 37.7214 142.693 37.5984 143.211 37.3308C143.729 37.0633 144.165 36.6609 144.476 36.1656H144.556V37.3667H146.783V31.4012C146.783 28.6386 144.735 27.0972 142.09 27.0972ZM141.811 35.625C141.056 35.625 140.002 35.2448 140.002 34.3038C140.002 33.1028 141.314 32.6423 142.448 32.6423C143.184 32.6225 143.912 32.8023 144.556 33.1628C144.471 33.8377 144.146 34.4589 143.642 34.9116C143.137 35.3642 142.487 35.6176 141.811 35.625ZM154.896 27.4375L152.251 34.1837H152.172L149.427 27.4375H146.942L151.058 36.8662L148.712 42.1111H151.118L157.461 27.4375H154.896ZM134.116 37.3926H136.423V21.8323H134.116V37.3926Z" fill="white"/>
</g>
<defs>
<clipPath id="clip0_3436_5595">
<rect width="166.913" height="49.7873" fill="white" transform="translate(0 0.623047)"/>
</clipPath>
</defs>
</svg>
