<svg width="81" height="80" viewBox="0 0 81 80" fill="none" xmlns="http://www.w3.org/2000/svg">
<g filter="url(#filter0_b_3419_5027)">
<circle cx="40.0742" cy="40" r="40" fill="url(#paint0_linear_3419_5027)" fill-opacity="0.8"/>
<circle cx="40.0742" cy="40" r="39.1667" stroke="url(#paint1_radial_3419_5027)" stroke-width="1.66667"/>
<circle cx="40.0742" cy="40" r="39.1667" stroke="url(#paint2_radial_3419_5027)" stroke-width="1.66667"/>
</g>
<g clip-path="url(#clip0_3419_5027)">
<path d="M40.4695 30.683C41.9844 30.1276 42.7619 28.4483 42.2051 26.9341C41.6484 25.4195 39.9702 24.6437 38.4544 25.1991C36.9407 25.756 36.1645 27.4347 36.7213 28.9481C37.2765 30.4634 38.9561 31.2398 40.4695 30.683Z" fill="#726D57"/>
<path d="M53.7588 28.552C53.2476 27.7821 52.2062 27.575 51.4401 28.0846L47.1182 30.9566L42.0016 31.5271C41.7818 31.5512 41.0905 31.7825 40.9401 31.8381L39.9299 32.2087C39.6948 32.2949 39.3091 32.4909 38.8882 32.8831L35.1701 36.317L32.1302 33.8083C32.0347 33.73 31.9225 33.6946 31.8164 33.6404L30.1201 28.4343C31.2258 27.4428 31.6258 25.4641 30.9749 23.4678C30.1711 21.0017 28.0907 19.468 26.3301 20.0424C24.5671 20.618 23.7908 23.0817 24.5945 25.5472C25.2453 27.5435 26.7326 28.9067 28.2121 29.0563L29.8209 33.9959C29.8077 34.011 29.7882 34.0175 29.7753 34.0333C29.1871 34.7461 29.2876 35.8002 29.9999 36.3883L30.822 37.0667L31.0835 37.8691C31.2206 38.2926 31.6142 38.5619 32.0374 38.5619C32.1406 38.5619 32.2452 38.5461 32.3484 38.512C32.3995 38.4957 32.436 38.4605 32.4817 38.437L34.1663 39.8276C34.8082 40.3574 35.7505 40.3359 36.366 39.7667L39.0988 37.2423L41.2304 43.0457L40.4254 50.0373L37.2036 57.0784C36.7423 58.0867 37.1866 59.2779 38.1943 59.7394C39.2058 60.2013 40.3952 59.7556 40.8552 58.7486L44.2087 51.4181C44.2963 51.2265 44.3525 51.022 44.3773 50.8124L44.9889 45.4964L47.5087 49.2891L47.4968 57.8476C47.4957 58.9558 48.3922 59.8563 49.5018 59.8576C49.5032 59.8576 49.5032 59.8576 49.5044 59.8576C50.6113 59.8576 51.5106 58.9604 51.5117 57.8528L51.525 48.6874C51.525 48.2914 51.4087 47.9038 51.1889 47.5738L47.1819 41.5424L44.632 34.5999L47.8918 34.2366C48.1555 34.2072 48.4106 34.1151 48.6314 33.9673L53.2906 30.8713C54.0605 30.3599 54.2698 29.3217 53.7588 28.552Z" fill="#726D57"/>
</g>
<defs>
<filter id="filter0_b_3419_5027" x="-69.9258" y="-70" width="220" height="220" filterUnits="userSpaceOnUse" color-interpolation-filters="sRGB">
<feFlood flood-opacity="0" result="BackgroundImageFix"/>
<feGaussianBlur in="BackgroundImageFix" stdDeviation="35"/>
<feComposite in2="SourceAlpha" operator="in" result="effect1_backgroundBlur_3419_5027"/>
<feBlend mode="normal" in="SourceGraphic" in2="effect1_backgroundBlur_3419_5027" result="shape"/>
</filter>
<linearGradient id="paint0_linear_3419_5027" x1="3.37519" y1="2.06061" x2="41.0708" y2="98.8539" gradientUnits="userSpaceOnUse">
<stop stop-color="white" stop-opacity="0.4"/>
<stop offset="1" stop-color="white" stop-opacity="0"/>
</linearGradient>
<radialGradient id="paint1_radial_3419_5027" cx="0" cy="0" r="1" gradientUnits="userSpaceOnUse" gradientTransform="translate(40.0742 0.727274) rotate(90) scale(69.4545)">
<stop stop-color="white"/>
<stop offset="1" stop-color="white" stop-opacity="0"/>
</radialGradient>
<radialGradient id="paint2_radial_3419_5027" cx="0" cy="0" r="1" gradientUnits="userSpaceOnUse" gradientTransform="translate(40.0742 80) rotate(-90) scale(40)">
<stop stop-color="white"/>
<stop offset="1" stop-color="white" stop-opacity="0"/>
</radialGradient>
<clipPath id="clip0_3419_5027">
<rect width="40" height="40" fill="white" transform="translate(19.1582 19.918)"/>
</clipPath>
</defs>
</svg>
