<svg width="108" height="108" viewBox="0 0 108 108" fill="none" xmlns="http://www.w3.org/2000/svg">
<g clip-path="url(#clip0_3419_5053)">
<path d="M106.992 67.9026L106.436 67.084L105.975 67.9601C102.968 73.673 92.9711 77.0871 85.0433 77.0871C74.9484 77.0871 25.1083 75.57 18.6199 75.2005C17.3372 75.1245 15.9975 75.089 14.4034 75.089C13.4146 75.089 12.4964 75.1014 11.6084 75.1131C10.8371 75.1233 10.1094 75.133 9.42559 75.133C7.29202 75.133 5.53766 74.5622 4.2569 74.1452C3.42691 73.8751 2.7712 73.6618 2.22817 73.6618C1.8095 73.6618 1.47023 73.7907 1.21987 74.0451C0.892017 74.3777 0.744849 74.8943 0.756499 75.6708C0.855879 82.388 4.41239 82.9072 9.42583 82.9072C10.1144 82.9072 10.8473 82.8975 11.6243 82.8872C12.5083 82.8754 13.4224 82.8632 14.4034 82.8632C15.9735 82.8632 17.2911 82.898 18.5509 82.9726C25.0472 83.3425 74.9382 84.8611 85.0433 84.8611C90.1723 84.8611 95.8421 83.499 100.21 81.2182C105.236 78.5932 108.004 75.061 108.004 71.2717C108.004 70.0233 107.664 68.8895 106.992 67.9026Z" fill="#151304"/>
<path d="M8.74744 71.9062C9.43097 71.9062 10.158 71.8964 10.929 71.8862C11.8061 71.8743 12.7134 71.8622 13.6867 71.8622C15.2475 71.8622 16.5544 71.8969 17.8017 71.9716C24.2469 72.3415 73.7503 73.8598 83.7784 73.8598C88.8691 73.8598 94.4962 72.4977 98.8311 70.216C103.819 67.5908 106.566 64.0587 106.566 60.2704C106.566 54.776 100.297 53.0017 93.6602 51.1228C90.0417 50.0985 86.2999 49.0393 83.1381 47.3444C81.714 46.5793 79.5426 45.4705 76.8964 44.1453C76.9007 44.0687 76.9081 43.9926 76.9081 43.9151C76.9081 41.6529 75.0679 39.8127 72.8057 39.8127C71.7903 39.8127 70.8619 40.1855 70.1448 40.7989C69.1864 40.3277 68.2038 39.8455 67.2043 39.356C67.1149 37.1725 65.3156 35.4224 63.1105 35.4224C62.2199 35.4224 61.397 35.7108 60.7239 36.1949C59.8276 35.7591 58.9299 35.3231 58.0348 34.8887C58.0538 34.7289 58.0664 34.5672 58.0664 34.4025C58.0664 32.1405 56.2262 30.3003 53.9642 30.3003C52.829 30.3003 51.8005 30.7642 51.057 31.5117C42.3128 27.2892 35.1439 23.8597 34.5015 23.5525C34.1102 23.2855 33.6739 23.1445 33.236 23.1445C32.5299 23.1445 31.8511 23.4878 31.4196 24.0642L26.5894 30.5414C25.9423 31.418 25.6881 32.3015 25.8338 33.1681C26.1225 34.8851 27.8937 36.1014 29.3169 37.0786C29.8834 37.4678 30.726 38.0462 30.8613 38.327C30.8594 38.3289 30.8573 38.3311 30.8554 38.333C30.0682 39.1026 27.5416 40.2481 23.8065 40.2481C21.6475 40.2481 19.3725 39.8356 17.2273 39.0545C14.6023 38.0988 13.5177 35.4764 12.6463 33.3692C11.9176 31.6068 11.288 30.0849 9.88936 30.0849C8.82828 30.0849 7.60053 31.0369 5.77794 33.2755C-0.417122 41.1498 -0.127543 53.1812 0.0840551 61.9661C0.106641 62.9068 0.128514 63.811 0.141115 64.669C0.239544 71.3872 3.77014 71.9062 8.74744 71.9062ZM60.6705 47.4966C60.6705 47.4966 61.465 46.7101 62.4472 47.0042C63.3019 47.26 65.323 47.8045 66.5595 48.1116C67.6168 48.3744 66.6622 49.2055 66.6622 49.2055L50.6096 63.8987C50.5967 63.908 49.9439 64.5036 48.9532 64.5036C47.3538 64.5036 44.2533 64.4915 42.9899 64.4915C41.9398 64.4915 42.8111 63.6054 42.8111 63.6054C42.8111 63.6054 60.6683 47.4966 60.6705 47.4966ZM48.4477 44.0285C48.452 44.0247 49.6866 42.807 51.1733 43.2775C51.9269 43.5159 53.6958 43.9551 54.8239 44.2708C55.7887 44.5406 54.7657 45.5359 54.7652 45.5368L34.8943 63.5523C34.8805 63.5626 34.4209 64.393 32.8722 64.393C31.1245 64.393 27.7896 64.4729 26.4251 64.4729C25.6539 64.4729 26.3395 63.6434 26.3388 63.6439L48.4477 44.0285Z" fill="#151304"/>
</g>
<defs>
<clipPath id="clip0_3419_5053">
<rect width="108" height="108" fill="white"/>
</clipPath>
</defs>
</svg>
