<svg width="80" height="80" viewBox="0 0 80 80" fill="none" xmlns="http://www.w3.org/2000/svg">
<g filter="url(#filter0_b_3419_5045)">
<circle cx="40" cy="40" r="40" fill="url(#paint0_linear_3419_5045)" fill-opacity="0.8"/>
<circle cx="40" cy="40" r="39.1667" stroke="url(#paint1_radial_3419_5045)" stroke-width="1.66667"/>
<circle cx="40" cy="40" r="39.1667" stroke="url(#paint2_radial_3419_5045)" stroke-width="1.66667"/>
</g>
<g clip-path="url(#clip0_3419_5045)">
<path d="M48.6636 37.2578C50.6993 37.0943 52.217 35.3117 52.0534 33.2768C51.8899 31.2411 50.1074 29.7234 48.0715 29.8871C46.0359 30.05 44.5184 31.8325 44.682 33.8683C44.8455 35.9038 46.6279 37.4214 48.6636 37.2578Z" fill="#726D57"/>
<path d="M26.4998 35.3345L33.2571 32.8262L37.2677 34.6536L28.8134 38.4706C29.1676 38.6283 29.5117 38.8093 29.8271 39.0424C31.781 37.6111 34.6592 37.6118 36.6107 39.0431C38.5488 37.6065 41.4232 37.5974 43.3953 39.0385C43.8407 38.6731 44.1963 38.205 44.4028 37.6571C44.7143 36.8328 44.6856 35.9182 44.3224 35.1144C44.077 34.5706 43.4097 33.8778 42.3503 33.4001C41.1326 32.8509 34.0113 29.5177 34.0113 29.5177C33.6115 29.3339 33.1521 29.3183 32.7444 29.4716L25.3443 32.2187C24.4833 32.5381 24.0447 33.4942 24.3641 34.3551C24.6836 35.2158 25.6467 35.6532 26.4998 35.3345Z" fill="#726D57"/>
<path d="M59.6177 41.0136C59.0983 40.4928 58.2556 40.4942 57.7362 41.0123C57.3185 41.4303 56.6367 41.4291 56.2213 41.0136C54.8205 39.6114 52.3486 39.6088 50.9438 41.0149C50.5414 41.4173 49.8379 41.4173 49.433 41.0136C48.0268 39.6029 45.5693 39.6016 44.158 41.0136C43.753 41.4173 43.0491 41.4173 42.644 41.0136L42.5661 40.9383C41.1562 39.6062 38.7494 39.6327 37.3638 41.0162C36.9666 41.4147 36.2579 41.4166 35.8528 41.0142C34.4663 39.6244 31.9644 39.6225 30.5754 41.0149C30.1781 41.4147 29.468 41.4173 29.0653 41.0123C27.6544 39.6029 25.1993 39.6062 23.7933 41.0116C23.3713 41.4303 22.6896 41.4283 22.2755 41.0123C21.756 40.4942 20.9136 40.4928 20.3943 41.0136C19.8762 41.5329 19.8762 42.3748 20.3956 42.8934C21.8496 44.3449 24.2153 44.3456 25.6719 42.8928C26.0768 42.489 26.7831 42.491 27.1828 42.8907C28.5902 44.3027 31.0505 44.3027 32.4578 42.8933C32.855 42.4935 33.568 42.4889 33.9756 42.8966C34.6805 43.5996 35.6166 43.9871 36.6099 43.9871C37.607 43.9871 38.5428 43.599 39.2492 42.8914C39.6517 42.4896 40.3605 42.4902 40.7603 42.8907L40.8396 42.966C42.2534 44.3072 44.6526 44.2766 46.0379 42.8933C46.4456 42.487 47.1465 42.487 47.5515 42.892C48.9614 44.304 51.4178 44.3027 52.8277 42.8907C53.2276 42.4909 53.9366 42.4876 54.3417 42.8941C55.7956 44.3462 58.1623 44.343 59.6166 42.8934C60.1355 42.3748 60.1355 41.5329 59.6177 41.0136Z" fill="#726D57"/>
<path d="M51.0907 47.5379L50.9467 47.6626C50.5468 48.0637 49.8368 48.0618 49.437 47.6633C48.0309 46.2513 45.5746 46.2501 44.1607 47.6607C43.7557 48.067 43.0518 48.0657 42.6468 47.662L42.5689 47.5867C41.159 46.2546 38.7522 46.2811 37.3665 47.6646C36.9693 48.0631 36.2606 48.065 35.8556 47.6626C34.4599 46.2624 31.9814 46.2617 30.5793 47.662C30.1809 48.0624 29.4708 48.0631 29.0693 47.6626C28.5515 47.1427 27.7102 47.1414 27.1895 47.66C26.669 48.1779 26.669 49.02 27.1869 49.5399C28.5838 50.9413 31.0635 50.9413 32.4605 49.5412C32.863 49.1381 33.5681 49.1342 33.9783 49.5451C34.6832 50.2481 35.6193 50.6355 36.6126 50.6355C37.6097 50.6355 38.5456 50.2474 39.252 49.5398C39.6544 49.138 40.3632 49.1387 40.763 49.5391L40.8423 49.6144C42.2587 50.9563 44.658 50.9257 46.042 49.5404C46.4469 49.1367 47.1504 49.1348 47.5556 49.5424C48.9463 50.9309 51.3974 50.9419 52.7983 49.5709C53.289 49.1134 53.3643 48.3512 52.9527 47.8026C52.5111 47.2147 51.6775 47.0953 51.0907 47.5379Z" fill="#726D57"/>
</g>
<defs>
<filter id="filter0_b_3419_5045" x="-70" y="-70" width="220" height="220" filterUnits="userSpaceOnUse" color-interpolation-filters="sRGB">
<feFlood flood-opacity="0" result="BackgroundImageFix"/>
<feGaussianBlur in="BackgroundImageFix" stdDeviation="35"/>
<feComposite in2="SourceAlpha" operator="in" result="effect1_backgroundBlur_3419_5045"/>
<feBlend mode="normal" in="SourceGraphic" in2="effect1_backgroundBlur_3419_5045" result="shape"/>
</filter>
<linearGradient id="paint0_linear_3419_5045" x1="3.30097" y1="2.06061" x2="40.9966" y2="98.8539" gradientUnits="userSpaceOnUse">
<stop stop-color="white" stop-opacity="0.4"/>
<stop offset="1" stop-color="white" stop-opacity="0"/>
</linearGradient>
<radialGradient id="paint1_radial_3419_5045" cx="0" cy="0" r="1" gradientUnits="userSpaceOnUse" gradientTransform="translate(40 0.727274) rotate(90) scale(69.4545)">
<stop stop-color="white"/>
<stop offset="1" stop-color="white" stop-opacity="0"/>
</radialGradient>
<radialGradient id="paint2_radial_3419_5045" cx="0" cy="0" r="1" gradientUnits="userSpaceOnUse" gradientTransform="translate(40 80) rotate(-90) scale(40)">
<stop stop-color="white"/>
<stop offset="1" stop-color="white" stop-opacity="0"/>
</radialGradient>
<clipPath id="clip0_3419_5045">
<rect width="40" height="40" fill="white" transform="translate(20 20)"/>
</clipPath>
</defs>
</svg>
